<svg xmlns="http://www.w3.org/2000/svg" xmlns:xlink="http://www.w3.org/1999/xlink" version="1.1" id="Layer_1" x="0px" y="0px" viewBox="4.8 -9.6 96.0 129.6" style="enable-background:new 0 0 96 96;" xml:space="preserve" height="100px" width="100px">
<path d="M82.207,41.768c0.016-0.369,0.028-0.74,0.028-1.114C82.235,27.038,71.188,16,57.56,16c-9.869,0-18.381,5.791-22.327,14.155  c-2.192-1.563-4.9-2.489-7.832-2.489c-7.295,0-13.208,5.717-13.208,12.768c0,1.047,0.134,2.063,0.379,3.036  C6.251,45.242,0,52.768,0,61.786C0,72.12,8.208,80,18.333,80h60.124C88.145,80,96,71.726,96,60.906  C96,51.524,90.093,43.687,82.207,41.768z M58.027,59.018c0,1.681-1.798,3.044-4.016,3.044s-4.016-1.363-4.016-3.044  c0-1.681,1.798-3.044,4.016-3.044v-8.985L46,49.075v13.624c0,0.024-0.022,0.039-0.026,0.062C45.98,62.827,46,62.889,46,62.955  C46,64.637,44.201,66,41.982,66c-2.219,0-4.018-1.363-4.018-3.045c0-1.682,1.799-3.045,4.018-3.045c0.006,0,0.012,0.001,0.018,0.001  V46.406c0-0.041,0.034-0.066,0.043-0.104c0.015-0.094,0.039-0.171,0.1-0.242c0.006-0.006,0.013-0.009,0.019-0.015  c0.062-0.064,0.119-0.136,0.212-0.16l14.569-3.794v0.026c0.524-0.049,1.004,0.283,1.089,0.787  C58.055,43.042,58.027,58.881,58.027,59.018z"/>
<text x="0.0" y="112.8" font-size="4.8" font-weight="bold" font-family="Helvetica Neue, Helvetica, Arial-Unicode, Arial, Sans-serif" fill="#000000">Created by Kirill Ulitin</text><text x="0.0" y="117.6" font-size="4.8" font-weight="bold" font-family="Helvetica Neue, Helvetica, Arial-Unicode, Arial, Sans-serif" fill="#000000">from the Noun Project</text></svg>