<svg xmlns="http://www.w3.org/2000/svg" xmlns:xlink="http://www.w3.org/1999/xlink" version="1.2" baseProfile="tiny" id="Calque_1" x="0px" y="0px" width="56.693px" height="56.693px" viewBox="2.83465 -5.6693 56.693 76.53555" xml:space="preserve">
<path fill="#000000" d="M35.292,13.677v15.86c0,3.614-2.957,6.57-6.57,6.57h-0.75c-3.614,0-6.571-2.956-6.571-6.57V28.12h9.219  c0.481,0,0.876-0.395,0.876-0.876v-0.358c0-0.48-0.395-0.876-0.876-0.876H21.4v-3.003h9.219c0.481,0,0.876-0.394,0.876-0.876v-0.356  c0-0.482-0.395-0.876-0.876-0.876H21.4v-3.003h9.219c0.481,0,0.876-0.396,0.876-0.876V16.66c0-0.482-0.395-0.876-0.876-0.876H21.4  v-2.106c0-3.613,2.957-6.57,6.571-6.57h0.75C32.335,7.106,35.292,10.063,35.292,13.677z M39.391,29.556v-4.768  c0-0.726-0.588-1.312-1.313-1.312c-0.725,0-1.312,0.587-1.312,1.312v4.768c0,4.642-3.775,8.417-8.417,8.417  c-4.643,0-8.417-3.775-8.417-8.417v-4.768c0-0.726-0.589-1.312-1.312-1.312c-0.726,0-1.313,0.587-1.313,1.312v4.768  c0,5.617,4.218,10.266,9.65,10.952v6.705h-5.394c-0.724,0-1.313,0.593-1.313,1.314v0.018v1.041h16.416v-1.041v-0.018  c0-0.723-0.591-1.314-1.312-1.314h-5.769v-6.686C35.091,39.912,39.391,35.228,39.391,29.556z"/>
<text x="0.0" y="66.614275" font-size="2.83465" font-weight="bold" font-family="Helvetica Neue, Helvetica, Arial-Unicode, Arial, Sans-serif" fill="#000000">Created by Jean-Philippe Cabaroc</text><text x="0.0" y="69.448925" font-size="2.83465" font-weight="bold" font-family="Helvetica Neue, Helvetica, Arial-Unicode, Arial, Sans-serif" fill="#000000">from the Noun Project</text></svg>