<svg xmlns="http://www.w3.org/2000/svg" xmlns:xlink="http://www.w3.org/1999/xlink" version="1.1" id="Layer_1" x="0px" y="0px" width="100px" height="100px" viewBox="5.0 -10.0 100.0 135.0" enable-background="new 0 0 100 100" xml:space="preserve">
<g>
	<path fill-rule="evenodd" clip-rule="evenodd" d="M69.572,8.467c0.295,0.168,0.688,0.599,0.92,0.182   C70.278,8.432,69.778,8.133,69.572,8.467z"/>
	<path fill-rule="evenodd" clip-rule="evenodd" d="M72.844,10.125c0.037-0.091-0.082-0.123-0.146-0.174   c-0.317-0.155-0.356,0.406-0.67,0.261c-0.419-0.174-0.448-0.545-0.892-0.502C71.025,10.618,72.539,10.579,72.844,10.125z"/>
	<path fill-rule="evenodd" clip-rule="evenodd" d="M67.015,7.458c-0.938-0.146-2.29-0.351-2.622,0.406   c-1.506,0.226-2.716,1.214-4.206,1.488c-0.079,0.325-0.254,0.406-0.379,0.611c-0.222,0.025-0.493-0.075-0.734-0.1   c-0.179,0.465-0.514,0.528-0.781,0.768c-0.157,0.126-0.4,0.028-0.589,0.075c-0.264,0.313-0.634,0.354-0.874,0.727   c-1.46,0.084-2.411,1.471-3.729,1.919c-0.773,0.722-1.686,1.089-2.669,1.273c-0.113,0.436-0.45,0.296-0.606,0.623   c-0.55-0.09-0.975,0.14-1.444,0.255c-0.618,1.085-1.669,1.268-2.595,1.862c-0.254,0.163-0.87,0.169-1.165,0.376   c-0.582,0.409-1.147,0.599-1.772,1.001c-0.227-0.112-0.211-0.302-0.466-0.205c-0.221,0.213-0.319,0.438-0.327,0.745   c-0.474,0.102-1.036-0.017-1.548-0.013c-0.215,0.265,0.246,0.265,0.25,0.443c-0.529,0.476-2.034,0.162-1.905,1.052   c-0.103,0.201-0.413-0.134-0.601-0.152c-0.881,0.512-1.547,1.576-2.657,1.5c0.248,0.447-0.289,0.353-0.513,0.664   c-1-0.139-1.608,0.861-2.401,1.169c-0.319,0.124-0.668-0.083-1.002,0.004c-1.091,0.288-1.915,1.553-3.165,1.39   c-0.419,0.77-1.071,0.946-1.614,1.403c-0.447-0.222-0.71,0.027-1.147-0.17c-0.479,0.699-1.686,0.583-1.324,1.752   c0.513,0.128,0.866-0.159,1.155-0.604c1.036-0.19,2.516-0.265,2.988-1.245c1.16-0.324,2.337-0.608,3.298-1.441   c0.673,0.207,1.165-0.05,1.725-0.132c0.313-0.646,1.101-0.544,1.689-0.815c0.754-0.346,1.464-1.182,2.325-1.756   c1.052-0.7,2.45-1.339,3.638-1.96c0.297,0.037,0.621,0.144,0.919,0.181c0.246-0.089,0.028-0.27,0.245-0.558   c0.404-0.219,0.955-0.062,1.457-0.028c1.166-0.969,2.278-2.079,3.759-2.239c1.46-1.533,3.438-1.742,4.89-3.299   c0.761,0.301,1.016-0.695,1.753-0.453c0.092-0.138-0.018-0.199,0.029-0.32c2.216-0.852,4.102-2.55,6.4-3.192   c1.317-1.371,3.221-1.239,4.613-2.419C65.915,7.935,66.578,7.987,67.015,7.458z"/>
	<path fill-rule="evenodd" clip-rule="evenodd" d="M68.767,8.781c-0.996-0.243-1.886-0.214-2.476,0.58   c-0.981,0.258-1.879,0.727-2.972,0.698c-0.054,0.123-0.108,0.248-0.163,0.372c-1.707,0.573-3.111,1.921-4.947,2.163   c-0.809,0.945-2.387,1.498-3.584,2.094c-0.139,0.207,0.081,0.277-0.111,0.506c-0.377,0.18-0.248-0.4-0.56-0.245   c-0.559,0.943-1.592,0.667-2.15,1.612c-0.801,0.125-1.546,0.392-2.133,1.064c-0.131,0.18,0.055,0.236,0.198,0.309   c-0.08,0.148-0.707-0.127-0.652-0.286c-0.445,0.705-1.285,0.874-1.253,1.338c-0.308,0.348-1.138-0.09-1.061,0.646   c-0.109,0.183-0.421-0.154-0.547-0.018c-0.631,0.759-1.545,0.791-2.309,1.209c0.106,0.769-0.845,0.399-0.77,0.996   c-1.442,0.458-2.259,2.521-3.934,2.385c-0.184,0.714-0.699,0.581-1.206,0.47c-0.304,0.279-0.622,0.518-1.021,0.552   c1.192-2.024,3.999-1.627,5.311-4.002c-1.209,0.135-2.296,0.582-3.258,1.348c-0.196,0.091-0.424,0.098-0.682,0.035   c-1.276,1.344-2.677,2.373-4.063,3.439c-1.417-0.333-2.125,1.15-3.508,0.905c-0.604,0.827-1.598,0.655-2.412,0.942   c-0.433,0.803-1.284,0.534-1.761,1.228c-1.388,0.531-2.897,0.752-3.893,2.291c2.058-0.068,3.571-1.533,5.611-1.648   c0.235-0.257,0.495-0.446,0.741-0.675c2.084-0.529,3.858-1.852,5.99-2.261c0.527-0.994,1.54-0.431,2.476-0.581   c0.49-0.078,1.237-0.532,1.783-0.772c0.962-0.426,1.803-1.101,2.669-1.274c2.429-2.613,5.707-3.052,8.038-5.917   c3.563-2.084,7.276-3.781,10.974-5.52c0.092-0.138-0.017-0.198,0.029-0.319c1.975-0.812,3.705-2.246,5.833-2.664   c0.092-0.138-0.019-0.199,0.029-0.32C67.669,9.396,68.303,9.308,68.767,8.781z"/>
	<path fill-rule="evenodd" clip-rule="evenodd" d="M60.569,5.186c-0.263-0.21-0.352,0.02-0.547-0.018   C60.001,5.414,60.558,5.512,60.569,5.186z"/>
	<path fill-rule="evenodd" clip-rule="evenodd" d="M73.874,11.576c0.122,0.434,0.878,0.971,1.461,0.975   C75.101,12.188,74.456,11.599,73.874,11.576z"/>
	<path fill-rule="evenodd" clip-rule="evenodd" d="M59.444,7.247c0.352,0.181,0.57,0.012,0.867,0.047   c-0.17,0.354-0.531,0.223-0.909,0.047c-1.622,1.183-3.443,1.861-5.087,2.989c-0.117,0.098-0.276,0.086-0.456,0.023   c-0.094,0.22-0.281,0.204-0.337,0.518c-2.051,1.208-4.114,2.385-6.202,3.501c-0.59,0.003-1.106,0.2-1.619,0.401   c-0.436-0.062-0.999-0.448-1.176,0.15c0.191,0.433,0.568,0.143,0.774,0.006c-0.157,0.521-0.513,0.533-0.834,0.635   c-0.331-0.103,0.034-0.477-0.436-0.525c-0.494,1.533-2.197,0.924-2.583,2.089c-0.877,0.125-1.671,0.463-2.569,0.539   c-0.514,1.321-1.938,0.872-2.617,1.408c0.043-0.034-0.022,0.543,0.023,0.455c-0.346,0.673-1.654,0.396-2.122,1.292   c-0.225,0.104-0.267-0.194-0.547-0.018c-1.1,0.875-2.522,0.924-3.544,2c-1.133-0.002-2.089,0.45-2.896,1.285   c-0.583,0.021-1.03,0.394-1.358,1.071c2.089-1.046,4.588-1.041,6.474-2.604c0.255,0.193,0.38,0.054,0.6,0.152   c0.955-0.852,1.987-1.506,3.298-1.442c0.074-0.157,0.036-0.271-0.064-0.361c0.773-0.196,1.455-0.626,2.028-1.332   c1.73-0.447,3.061-1.918,4.907-2.07c2.171-1.903,4.97-2.47,7.417-3.745c1.895-0.985,3.713-2.409,5.653-3.52   c0.237-0.116,0.044-0.122,0.163-0.372c0.758,0.158,1.223-0.433,1.784-0.773c0.209-0.262-0.021-0.353,0.018-0.547   c1.877,0.324,2.998-1.289,4.609-1.645c0.092-0.139-0.019-0.199,0.029-0.32c-0.096-0.262-0.421-0.238-0.65-0.286   C61.379,7.331,60.162,6.699,59.444,7.247z"/>
	<path fill-rule="evenodd" clip-rule="evenodd" d="M52.071,18.232c-0.159,0.844-0.779,0.508-1.195,0.698   c-0.94,1.132-1.539,2.108-2.85,2.193c-1.005,1.173-2.242,1.93-3.398,2.176c-2.411,2.199-5.409,2.894-8.118,4.327   c-0.256-0.192-0.345,0.041-0.6-0.152c-0.081,0.186-0.163,0.373-0.245,0.56c-3.322,1.315-6.574,2.811-10.011,3.83   c-0.147,0.169-0.428,0.306-0.338,0.518c-0.89,0.159-1.729,0.449-2.401,1.168c-0.13,0.192-0.496-0.214-0.641-0.059   c-0.308,0.949-1.07,1.091-1.003,1.781c1.073-0.348,1.928-1.26,3.071-1.429c0.156-0.063,0.249-0.284,0.338-0.518   c0.354-0.212,0.855-0.049,1.27-0.11c0.93-0.715,2.096-0.828,3.228-1.028c1.709-1.094,3.69-1.491,5.326-2.773   c0.536-0.014,0.975-0.272,1.539-0.215c1.773-1.124,3.67-1.938,5.658-2.517c2.679-1.643,5.382-3.227,7.99-5.05   c0.069-0.155,0.136-0.31,0.205-0.464c1.535-1.606,3.553-1.974,5.21-3.27c0.108-0.183,0.421,0.154,0.548,0.018   c0.257-0.701,0.975-0.915,1.433-0.482c0.522-1.168,1.657-0.768,2.442-1.262c0.19-0.23-0.025-0.3,0.11-0.506   c0.433-0.21,0.992-0.096,1.445-0.255c0.382-0.535,0.774-1.048,1.358-1.071c0.085-0.162-0.029-0.247,0.07-0.414   c1.541-0.733,3.106-1.405,4.521-2.46c0.736,0.105,1.297-0.239,2.045-0.103c0.126-0.074,0.232-0.196,0.297-0.426   c0.595,0.208,1.097,0.173,1.393-0.389c0.063-0.102,0.053-0.173-0.01-0.227c-1.371-0.599-2.678,0.657-4.172,0.393   c-0.694,0.335-1.211,1.118-2.093,0.971c-0.979,0.986-2.096,1.62-3.263,2.124c-0.083,0.186-0.163,0.373-0.246,0.56   c-2.17,0.503-3.971,1.961-6.164,2.406c-0.263,0.251-0.42,0.771-0.886,0.5c-0.068,0.156-0.137,0.311-0.205,0.466   c-0.399,0.099-0.837,0.096-1.061,0.645C52.514,18.443,52.295,18.345,52.071,18.232z"/>
	<path fill-rule="evenodd" clip-rule="evenodd" d="M59.28,5.843c-0.142-0.291-0.976-0.665-1.001,0.005   C58.736,6.162,59.014,6.018,59.28,5.843z"/>
	<path fill-rule="evenodd" clip-rule="evenodd" d="M73.774,12.31c-0.465-0.068-1-0.317-1.532-0.56   c-1.152,0.803-2.915,0.05-3.95,1.156c-0.255-0.192-0.381-0.054-0.6-0.152c-1.892,1.218-4.213,1.34-6.061,2.674   c0.854,0.776,1.797,0.136,2.396-0.394c1.167-0.174,2.246-0.578,3.425-0.72c0.49-0.801,1.686-1.12,2.93-0.603   C71.165,12.476,73.227,13.492,73.774,12.31z"/>
	<path fill-rule="evenodd" clip-rule="evenodd" d="M58.198,6.034c-0.749-0.401-0.957,0.584-1.672,0.267   c-0.02,0.92-1.146,0.413-1.39,1.391c-1.444,0.648-3.396,1.054-4.188,2.717c-1.964,0.837-3.849,1.876-5.938,2.395   c-0.126,0.205-0.281,0.335-0.432,0.477c-0.556,0.157-1.136,0.255-1.765,0.226c-1.435,1.134-3.181,1.476-4.761,2.244   c-0.642,0.993-1.724,0.856-2.366,1.851c-0.88,0.018-2.134,0.27-3.001,1.017c-0.654,0.562-1.367,0.928-2.203,1.478   c-0.478,0.313-0.985,0.334-0.781,0.767c-1.144-0.161-1.782,0.974-2.605,1.636c0.478,0.1,1.527-0.043,1.917-0.826   c0.389-0.115,0.132,0.492,0.611,0.378c0.192-0.229-0.026-0.298,0.111-0.506c2.292-0.854,3.987-3.234,6.678-3.07   c0.21-0.262-0.021-0.353,0.018-0.547c0.109-0.183,0.42,0.154,0.547,0.018c2.224-2.084,5.109-2.472,7.489-4.158   c0.434,0.124,0.743-0.076,1.136-0.057c0.225-0.61,0.761-0.424,1.049-0.873c1.49,0.521,2.222-0.902,3.455-1.04   c0.192-0.229-0.025-0.298,0.112-0.507c1.208-0.335,2.078-1.535,3.328-1.762c0.081-0.187,0.163-0.373,0.244-0.559   c1.524-0.519,2.755-1.777,4.255-2.356C58.035,6.297,58.261,6.352,58.198,6.034z"/>
	<path fill-rule="evenodd" clip-rule="evenodd" d="M75.629,13.901c-0.869,0.08-1.789,0.031-2.736-0.09   c-0.182,0.591-0.742,0.208-1.124,0.285c-0.959,1.697-3.088,0.397-4.302,1.446c-0.319-0.18-0.386-0.339-0.744-0.327   c-0.125,0.074-0.232,0.196-0.298,0.425c-2.079,0.279-3.713,1.7-6.141,1.084c-1.223,1.416-3.188,0.932-4.389,2.408   c-0.187-0.082-0.373-0.164-0.558-0.245c-0.577,0.887-1.797,0.783-2.577,1.313c-0.575,0.393-1.011,1.087-1.655,1.496   c-0.638,0.405-1.176,0.399-1.667,1.268c0.413,0.07,0.158,0.402,0.571,0.473c1.452-1.096,2.894-2.213,4.604-2.646   c0.577-0.961,1.676-0.587,2.349-1.303c1.914-0.504,3.781-1.125,5.548-2.011c1.093,0.096,2.127,0.042,2.929-0.604   c1.15,0.11,2.193-0.056,3.118-0.521c2.356-0.263,4.994,1.273,7.194,0.822c1.088,0.514,2.52,0.897,3.51,1.873   c0.546,0.538,0.762,1.43,1.535,1.562c0.228-0.44-0.431-0.621,0.089-0.96c-0.215-0.252-0.447-0.496-0.943-0.636   c-0.141-0.691-0.955-1.121-1.094-1.813c-0.313-0.21-0.446,0.045-0.733-0.1c-2.044-1.377-4.608-0.548-6.382-1.91   c1.222-0.565,2.9,0.046,4.119-0.527c0.574,0.842,1.197,0.648,2.358,0.702C77.694,14.405,76.226,14.726,75.629,13.901z"/>
	<path fill-rule="evenodd" clip-rule="evenodd" d="M54.469,6.177c-0.336-0.201-0.605-0.234-0.828-0.141   c-0.021,0.111,0.158,0.144,0.105,0.268c-0.662,0.083-1.351,0.101-1.94,0.371c-0.124,0.178-0.044,0.274-0.07,0.413   c-0.85,0.094-1.115,0.635-1.719,1.135C51.39,8.657,53.21,7.302,54.469,6.177z"/>
	<path fill-rule="evenodd" clip-rule="evenodd" d="M49.564,6.47c-0.403,0.021-0.842-0.051-1.124,0.284   C48.938,6.977,49.212,6.622,49.564,6.47z"/>
	<path fill-rule="evenodd" clip-rule="evenodd" d="M19.08,41.533c0.689-0.113,1.833,0.221,2.646,0.048   c0.161-0.344,0.22-0.219,0.245-0.559c0.677-0.176,1.305-0.482,2.021-0.558c1.816-1.679,4.284-1.687,6.119-3.315   c0.897-0.208,1.788-0.435,2.442-1.263c3.132-0.877,5.4-3.969,8.707-4.401c2.218-1.703,4.863-2.313,6.982-4.269   c0.095-0.218,0.19-0.436,0.286-0.652c2.047-1.219,3.987-2.713,6.253-3.368c1.253-1.009,2.619-1.731,4.185-1.941   c2.057-1.324,4.694-1.159,6.963-1.945c0.186,0.082,0.372,0.163,0.56,0.245c0.626-0.502,1.427-0.559,2.352-0.3   c0.34-0.252,0.773-0.26,1.114-0.511c2.353,0.758,5.468,0.845,7.231,2.504c1.161-0.009,1.755,1.064,2.714,1.412   c0.525,0.956,1.692,2.063,2.635,2.601c0.103-0.735-0.449-1.216-0.638-1.837c-1.517-1.375-3.129-3.234-4.762-4.086   c-0.262-0.143-0.398,0.035-0.588,0.075c-2.79-1.389-5.832-1.765-8.229-1.498c-1.048-0.572-1.496,0.389-2.458,0.033   c-0.188,0.31-0.459,0.407-0.7,0.582c-2.52-0.124-4.456,1.244-6.852,1.438c-0.208,0.456-0.693,0.199-0.873,0.728   c-1.213,0.194-2.302,0.698-3.247,1.576c-1.012-0.008-1.775,0.952-2.546,0.993c-0.127,0.206-0.3,0.286-0.379,0.612   c-1.047,0.218-1.566,1.792-2.74,1.687c-1.037,1.496-2.375,2.223-3.828,2.653c-0.598,0.843-1.439,1.062-2.309,1.209   c-1.719,0.938-3.453,1.835-5.245,2.588c-0.122,0.676-0.683,0.229-0.822,0.861c-1.033,0.519-2.354,0.298-3.059,1.658   c-1.384-0.116-2.029,1.662-3.485,1.359c-0.094,0.221-0.281,0.204-0.338,0.518c-1.543,0.069-2.358,2.006-4.062,1.662   c-0.586,0.608-1.198,1.148-2.091,0.972c-0.523,0.969-1.606,0.503-2.164,1.384C20.149,40.242,19.392,41.075,19.08,41.533z"/>
	<path fill-rule="evenodd" clip-rule="evenodd" d="M47.968,7.324c-0.093-0.041-0.187-0.081-0.279-0.123   c-2.026,1.207-3.96,2.647-6.056,3.676c0.393,0.139-0.036,0.216-0.071,0.414c-1.238,0.85-2.476,1.697-3.851,2.198   c-1.113,1.441-3.26,1.757-4.885,2.524c-0.514,1.163-2.175,1.048-1.981,2.241c0.427,0.106,0.77-0.005,0.979-0.459   c1.507-0.822,3.022-1.623,4.679-2.058c0.536-0.607,1.138-1.043,1.854-1.187c0.698-1.248,1.879-1.256,2.925-1.605   c0.813-1.086,1.647-2.111,2.851-2.194c0.375-0.687,1.008-0.711,1.334-1.524C46.511,9.132,47.293,8.364,47.968,7.324z"/>
	<path fill-rule="evenodd" clip-rule="evenodd" d="M50.308,8.573c-0.745-0.325-1.228,0.019-1.922-0.176   c0.045,0.266,0.417,0.404,0.355,0.711c-0.511,0.274-0.897,0.867-1.608,0.628c-0.18,0.225,0.102,0.268,0.022,0.454   c-1.722,0.798-3.553,1.314-5.006,2.803c2.038-0.253,3.544-1.867,5.588-2.104c-0.079-0.655,0.488-0.679,0.926-0.593   c0.098-0.606,0.74-1.176,1.358-1.07C50.026,8.882,50.164,8.97,50.308,8.573z"/>
	<path fill-rule="evenodd" clip-rule="evenodd" d="M44.612,7.631c-1.327,0.424-2.561,1.089-3.625,2.187   C42.405,9.627,43.461,8.504,44.612,7.631z"/>
	<path fill-rule="evenodd" clip-rule="evenodd" d="M56.58,23.653c-0.281-0.064-0.544-0.076-0.826-0.14   c-2.156,1.863-4.973,2.03-7.14,3.867c1.194,0.617,2.238-0.859,3.468-0.812c0.206-0.13,0.371-0.366,0.564-0.53   c0.321,0.031,0.561-0.147,0.96,0.088c0.11-0.247,0.201-0.547,0.379-0.611c2.75-1.402,5.813-1.991,8.578-3.348   c0.591,0.323,0.893-0.088,1.416,0.065c0.812-0.623,1.935-0.656,3.304-0.44c1.009,0.16,2.108-0.187,3.046-0.108   c0.479,0.041,1.07,0.411,1.665,0.509c1.146,0.189,2.599,0.509,3.769,1.542c0.257,0.196,0.254-0.271,0.548,0.018   c1.882,1.076,3.727,2.397,5.338,3.785c0.196,0.492,0.454,1.142,1.234,0.985c-0.19-0.802-0.802-1.437-1.025-2.226   c-1.061-0.61-1.539-1.331-2.415-1.837c-0.226-0.118-0.354,0.015-0.495,0.115c-0.271-0.382-0.583-0.75-0.831-1.141   c-0.311-0.202-0.498-0.089-0.732-0.1c-5.96-3.634-12.256-3.598-16.701-1.437c-1.713-0.432-2.58,1.302-4.125,1.301   C56.376,23.423,56.661,23.468,56.58,23.653z"/>
	<path fill-rule="evenodd" clip-rule="evenodd" d="M18.414,44.573c0.54,0.637,1.067-0.06,1.695,0.188   c1.218-1.561,3.163-1.26,4.835-1.656c0.708-0.694,1.362-1.523,2.39-1.397c1.173-0.711,2.374-1.486,3.677-2.052   c0.344-0.15,0.789-0.073,1.125-0.286c0.409-0.259,0.781-0.706,1.223-1.018c0.536-0.377,0.955-0.785,1.626-1.175   c0.353-0.206,0.799-0.231,1.072-0.418c0.285-0.194,0.386-0.551,0.688-0.809c1.133-0.965,2.616-1.363,3.708-2.374   c0.516-0.193,0.998-0.476,1.671-0.267c1.922-1.736,4.505-1.778,6.271-3.914c0.239-0.047,0.572,0.144,0.827,0.141   c0.684-0.558,1.543-0.661,2.423-0.716c0.208-0.13,0.373-0.366,0.566-0.529c1.929-0.463,3.784-1.121,5.548-2.01   c1.674-0.858,3.659-0.914,5.383-1.639c0.249,0.042,0.484,0.053,0.786,0.234c0.182-0.063,0.25-0.415,0.433-0.477   c0.216,0.095,0.433,0.19,0.65,0.286c1.396-0.58,3.304,0.154,4.72-0.374c0.339,0.382,1.01,0.635,1.462,0.974   c0.302,0.18,0.401-0.156,0.628-0.168c3.248,1.498,6.789,2.841,9.096,5.099c0.289,0.216,0.418,0.018,0.691,0.193   c0.336,0.358,0.574,0.753,1.101,1.038c-0.081,0.254-0.174,0.479-0.443,0.25c0.015,0.292,0.58,0.644,0.85,0.595   c0.065-0.232,0.006-0.415,0.193-0.693c-0.807-0.749-0.962-1.932-1.903-2.5c-0.241-0.147-0.611-0.182-0.931-0.409   c-0.831-0.593-1.477-1.508-2.428-2.063c-1.108-0.648-1.943-1.412-3.034-1.442c-0.729-0.715-2.369-0.81-2.754-1.318   c-0.305,0.074-0.643,0.065-0.948,0.139c-1.231-0.58-2.093-0.214-3.373-0.923c-1.093,0.034-2.307-0.238-3.169,0.387   c-1.646-0.659-2.44,0.87-4.036,0.34c-1.331,0.681-2.63,1.441-4.207,1.487c-0.126,0.074-0.232,0.196-0.297,0.425   c-0.193,0.1-0.543-0.2-0.735-0.1c-1.028,1.388-2.639,1.284-3.903,2.064c-1.001-0.255-1.537,0.68-2.529,0.446   c-0.18,0.2-0.416,0.255-0.565,0.529c-1.12,0.257-2.148,1.122-3.287,1.669c-0.724,0.349-1.302,0.74-2.174,1.158   c-0.592,0.284-1.351,0.329-1.836,0.639c-0.669,0.428-1.091,1.278-2.039,1.105c-0.884,0.704-1.729,1.507-2.833,1.646   c-1.417,1.646-3.506,1.566-4.837,3.433c-0.851,0.063-1.608,0.364-2.174,1.158c-0.598,0.312-1.351,0.232-1.771,1   c-1.253-0.141-1.881,1.016-2.885,1.512c-0.98,0.483-2.678,0.343-3.869,0.969c-0.486,0.256-0.692,0.684-1.381,0.617   C19.226,44.162,18.841,44.184,18.414,44.573z"/>
	<path fill-rule="evenodd" clip-rule="evenodd" d="M40.73,10.149c-1.022,0.611-2.358,0.422-3.048,1.885   C38.904,11.933,39.913,11.287,40.73,10.149z"/>
	<path fill-rule="evenodd" clip-rule="evenodd" d="M48.187,30.636c-0.159,0.268,0.218,0.327,0.343,0.485   c-0.75,0.319-1.664,0.222-2.278,0.888c-2.955,1.068-5.441,3.338-8.439,4.298c-1.299,1.88-3.434,1.62-4.849,3.205   c1.17,0.48,2.333-0.74,3.56-0.771c0.468-0.515,1.06-0.714,1.533-1.216c2.122-0.697,3.858-2.38,6.049-2.901   c0.087-0.235,0.182-0.455,0.338-0.519c3.85-1.809,7.809-3.338,11.678-5.099c0.325-0.012,0.361,0.462,0.559,0.245   c3.726-1.667,8.02-1.874,12.333-2.034c2.354,1.558,5.476,0.239,7.472,2.722c0.294,0.289,0.29-0.177,0.547,0.018   c0.433,0.012-0.144,0.417,0.117,0.495c1.236,0.569,1.723,1.501,2.829,1.908c0.231,0.25-0.355,0.338-0.152,0.599   c0.383,0.562,1.44,0.384,1.286,1.121c0.263,0.144,0.378-0.085,0.64,0.058c0.056,0.417,0.034,0.863,0.647,1.062   c0.202-0.023,0.16-1.232-0.482-1.434c0.288-0.97-0.907-1.894-1.693-1.964c-0.304-0.217-0.167-0.606-0.274-0.898   c-1.796-0.911-3.138-2.767-5.209-3.063c-0.557-0.652-1.96-1.059-2.639-0.824c-0.881-0.729-1.742-0.364-2.329-1.021   c-1.006,0.324-2.473-0.531-3.367,0.079c-0.188-0.082-0.374-0.164-0.559-0.245c-0.195,0.158-0.448,0.173-0.619,0.395   c-1.067-0.296-1.809,0.246-2.713,0.364c-0.992-0.429-1.586,0.159-2.302,0.435c-0.315-0.06-0.208-0.013-0.467-0.204   c-0.125,0.074-0.232,0.195-0.298,0.425c-0.968-0.57-1.238,0.649-2.127,0.289c-0.446,0.701-1.206,0.601-1.979,0.465   c-0.316,0.639-0.956,0.452-1.474,0.575c-1.274,1.091-2.978,1.079-4.318,1.995C49.094,30.139,48.784,30.88,48.187,30.636z"/>
	<path fill-rule="evenodd" clip-rule="evenodd" d="M37.176,11.923c-0.324,0.027-0.698-0.074-0.845,0.407   c0.254-0.01,0.534,0.05,0.774,0.006C37.19,12.175,37.077,12.09,37.176,11.923z"/>
	<path fill-rule="evenodd" clip-rule="evenodd" d="M72.742,28.852c0.409,1.255,1.828,2.118,2.577,3.241   c0.788,0.056,0.843,0.577,1.635,0.828c0.25,0.135,0.134,0.411,0.303,0.577c2.181,1.363,3.225,3.169,4.527,4.874   c0.146-0.155,0.512,0.251,0.641,0.06c0.244-0.43-0.126-0.62-0.542-0.793c-0.046-0.221,0.292-0.434,0.234-0.786   c-1.272-1.252-2.321-2.594-3.386-3.93C76.483,32.08,75.388,29.037,72.742,28.852z"/>
	<path fill-rule="evenodd" clip-rule="evenodd" d="M66.449,28.759c-0.871-0.45-1.368,0.052-2.149-0.165   c-1.704,0.906-3.973,0.376-5.622,1.422c-0.247-0.042-0.483-0.053-0.785-0.234c-2.555,0.577-4.939,1.587-7.343,2.557   c-0.06,0.24-0.259,0.127-0.297,0.425c-1.753,0.519-3.325,1.504-5.04,2.122c-0.229,0.449-0.448,0.618-0.863,0.955   c-2.457,0.958-4.894,1.97-7.109,3.547c-1.435,0.414-2.815,0.967-4.417,0.952c-0.23,0.2-0.49,0.327-0.699,0.582   c-0.325,0.024-0.596,0.188-1.002,0.005c-1.811,1.69-4.188,1.931-6.066,3.448c-1.203,0.412-2.67,0.148-3.578,1.32   c-1.816,0.094-3.134,1.463-4.72,2.15c0.18,0.11,0.078,0.33,0.116,0.495c2.106-0.011,3.604-1.58,5.6-1.876   c0.186-0.447,0.594-0.324,0.833-0.634c1.029-0.001,2.063,0.012,2.732-0.912c0.848-0.642,1.931-0.751,2.99-1.243   c1.64-0.764,2.859-1.624,4.638-1.966c0.71-0.137,1.417-0.651,2.186-0.93c0.665-0.241,1.432-0.323,2.022-0.557   c2.462-0.977,4.808-2.776,7.325-3.785c0.131-0.257,0.34-0.313,0.472-0.571c1.41-0.807,3.188-0.667,4.359-2.087   c0.266-0.045,0.648,0.209,0.868,0.047c0.126-0.074,0.232-0.195,0.298-0.425c1.865-0.495,3.38-1.892,5.518-1.69   c0.6-0.506,1.427-0.43,2.051-0.878c0.248,0.041,0.624,0.413,0.787,0.233c0.406,0.194,0.09-0.231,0.297-0.424   c0.223-0.088,0.579,0.166,0.88,0.274c1.582-0.892,3.722-0.351,5.312-1.225c1.438,0.447,2.544,0.052,3.938,0.393   c1.403,0.409,2.589,1.438,3.903,1.489c-0.721-2.74-4.577-2.817-7.093-3.332C66.632,28.304,66.538,28.524,66.449,28.759z"/>
	<path fill-rule="evenodd" clip-rule="evenodd" d="M34.139,14.035c-0.021,0.246,0.538,0.344,0.547,0.018   C34.561,13.712,34.327,13.97,34.139,14.035z"/>
	<path fill-rule="evenodd" clip-rule="evenodd" d="M68.59,31.476c-0.617-0.324-1.154-0.453-1.717-0.643   c-0.108,0.051-0.193,0.167-0.258,0.333c-0.767-0.514-1.015,0.3-1.788-0.229c-1.667,0.411-3.351,0.779-4.889,1.522   c-0.082,0.383-0.309,0.396-0.419,0.705c-1.526,0.318-2.704,1.506-4.132,2.076c-0.561,0.223-1.247,0.14-1.808,0.318   c-1.254,0.401-2.36,0.963-3.524,1.454c-0.181,0.13-0.313,0.388-0.472,0.57c-1.983,0.658-3.774,1.809-5.543,3.012   c-3.002,0.881-5.397,3.318-8.554,3.802c-0.376,0.62-1.034,0.515-1.451,1.03c-0.279-0.187-0.462-0.126-0.693-0.193   c-0.65,0.187-0.998,0.792-1.492,1.123c-0.295,0.198-0.846,0.259-1.206,0.471c-0.292,0.171-0.458,0.486-0.701,0.582   c-0.264,0.105-0.552-0.035-0.907,0.045c-1.275,0.289-2.44,1.579-3.503,1.909c-0.858,0.266-1.946,0.115-2.431,1.488   c-1.346,0.045-2.327,1.029-3.682,1.052c-1.295,1.429-3.249,1.174-4.458,2.819c0.066,0.258,0.372,0.421,0.757,0.555   c0.311-0.39,0.74-0.477,1.049-0.872c1.806,0.01,2.899-1.804,4.796-1.563c0.638-0.605,1.415-0.858,2.277-0.889   c0.239-0.509,0.617-0.663,0.852-1.182c1.264-0.324,2.521-0.665,3.462-1.815c0.176-0.076,0.445,0.085,0.693,0.193   c0.656-0.562,1.534-0.553,2.278-0.89c1.702-1.641,4.013-1.722,5.81-3.117c0.519-0.123,0.974-0.408,1.527-0.442   c1.178-1.329,2.929-1.561,4.44-2.274c1.823-0.859,3.486-2.261,5.46-2.826c0.096-0.283,0.336-0.194,0.431-0.478   c0.411-0.201,0.869-0.281,1.3-0.43c0.316-0.8,1.011-0.628,1.689-0.813c1.019-0.279,1.975-1.194,2.887-1.512   c0.323-0.113,0.708-0.004,1.042-0.098c1.627-0.461,2.741-1.948,4.492-2.14c0.09-0.235,0.184-0.455,0.338-0.518   c0.337-0.26,0.843-0.083,1.219-0.243c0.126-0.206,0.302-0.286,0.379-0.611c0.807-0.175,1.784,0.088,2.436-0.487   c0.302,0.181,0.539,0.192,0.786,0.233c0.383-0.139,0.79-0.215,1.166-0.377c2.595,0.709,4.933-0.213,7.413,1.584   c1.996,1.446,3.764,3.706,5.727,5.178c0.952,1.25,1.498,2.66,2.52,3.882c0.679-0.96-0.34-1.257,0.03-2.097   c-1.914-1.746-2.643-3.669-4.807-4.997c-0.31-0.213-0.375-0.522-0.542-0.792c-1.17-0.348-1.544-1.997-2.893-2.269   c-1.211-0.955-3.269-0.935-4.81-1.443C68.851,30.957,68.791,31.397,68.59,31.476z"/>
	<path fill-rule="evenodd" clip-rule="evenodd" d="M49.596,23.369c-0.279-0.188-0.461-0.127-0.693-0.193   c-0.751,1.108-2.011,0.916-2.768,2.007c-1.598,0.394-2.749,1.927-4.4,2.181c-0.174,0.48-0.581,0.359-0.729,0.901   c-1.882-0.075-3.102,1.55-4.929,1.616c-1.763,1.947-4.131,2.343-6.149,3.635c-0.923-0.123-1.625,0.32-2.226,1.023   c-1.129,0.468-2.337,0.741-3.496,1.132c-0.165,0.304-0.384,0.47-0.502,0.891c-0.491-0.183-0.877-0.514-1.416-0.065   c0.072,0.313,0.57,0.017,0.478,0.432c-0.983-0.012-1.871,0.219-2.442,1.262c0.428,0.403,0.669,0.083,1.211,0.531   c0.123-0.279,0.246-0.56,0.368-0.839c0.355,0.066,0.297,0.295,0.611,0.379c0.096-0.217,0.19-0.435,0.287-0.653   c1.224-0.292,2.366-0.795,3.379-1.627c1.105,0.247,1.776-0.6,2.587-1.087c1.031-0.619,2.188-0.391,3.333-0.76   c2.498-2.045,5.326-3.238,8.002-4.823c1.775-0.114,3.45-1.225,5.069-2.442c0.508-0.382,1.28-0.641,1.906-1.053   c0.588-0.387,0.993-0.995,1.48-1.35C48.891,24.226,49.438,24.199,49.596,23.369z"/>
	<path fill-rule="evenodd" clip-rule="evenodd" d="M73.784,35.085c0.198-1.307-2.336-1.727-3.128-1.481"/>
	<path fill-rule="evenodd" clip-rule="evenodd" d="M76.052,36.748c-0.062,0.539,0.47,0.847,0.927,1.184   C77.185,37.335,76.627,37.038,76.052,36.748z"/>
	<path fill-rule="evenodd" clip-rule="evenodd" d="M14.382,58.579c0.623-0.055,1.017-0.695,1.911-0.05   c0.4-0.316,0.42-0.535,0.315-0.973c0.672-0.056,1.163-0.583,1.731-0.907c0.715-0.058,1.214-0.744,1.865-0.96   c0.362-0.12,0.81,0.019,1.136-0.058c0.178-0.042,0.302-0.313,0.483-0.343c0.175-0.028,0.417,0.145,0.507,0.11   c1.108-0.404,2.093-1.83,3.555-1.772c0.396-0.568,0.939-0.758,1.556-0.762c0.139-0.173,0.347-0.166,0.431-0.478   c1.761-0.369,3.179-1.616,4.697-2.606c2.933-1.587,6.079-2.627,8.83-4.681c2.416-0.403,4.374-1.982,6.492-3.152   c0.421-0.04,0.781-0.239,1.217-0.243c1.939-1.759,4.49-1.949,6.627-3.204c0.311,0.069,0.571,0.015,0.867,0.047   c2.089-1.968,4.582-2.901,7.36-3.104c1.188-0.763,3.231-1.203,5.026-0.572c0.331,0.116,0.563,0.467,0.944,0.636   c0.334,0.148,0.714,0.073,1.013,0.222c0.389,0.195,0.771,0.615,1.275,0.893c0.763,0.419,1.643,0.614,2.102,1.033   c0.587,0.536,0.702,1.433,1.187,1.853c1.546,0.632,1.852,1.749,2.597,2.694c0.696-0.032,0.606,0.327,1.129,0.717   c0.364,0.272,0.936,0.319,1.117,0.49c0.752,0.705,0.17,2.399,1.326,2.803c0.467-0.877-0.366-1.247-0.237-1.992   c-0.492-0.652-0.759-1.605-1.437-2.296c-0.61-0.621-1.653-1.055-2.323-1.796c-1.038-1.151-1.573-2.663-2.536-3.333   c-1.039-0.725-2.14-0.733-3.064-1.122c-1.853-1.598-3.755-2.486-6.126-2.242c-0.597,0.062-1.207,0.496-1.835,0.64   c-1.894,0.432-4.086,0.509-5.61,1.648c-0.081,0.186-0.163,0.373-0.245,0.559c-0.656,0.363-1.399,0.503-2.156,0.61   c-1.663,1.674-4.001,1.615-5.82,2.89c-1.858,0.254-3.386,1.353-4.884,2.524c-0.746,0.266-1.498,0.515-2.081,1.198   c-1.314-0.161-2.194,0.708-3.216,1.255c-1.568,0.84-3.228,1.58-4.854,2.204c-0.065,0.23-0.172,0.352-0.297,0.425   c-1.437,0.408-2.846,0.887-3.998,2.024c-1.467,0.659-2.943,1.295-4.203,2.488c-0.314,0.052-0.687-0.044-1.001,0.006   c-0.724,0.321-1.258,1.129-2.134,1.064c-0.829,1.104-1.974,1.404-3.256,1.349c-1.083,0.456-1.97,1.418-3.257,1.349   C16.072,56.431,15.055,57.429,14.382,58.579z"/>
	<path fill-rule="evenodd" clip-rule="evenodd" d="M77.893,38.887c0.033,0.812,0.729,1.774,1.826,1.913   C79.408,40.078,79.065,39.021,77.893,38.887z"/>
	<path fill-rule="evenodd" clip-rule="evenodd" d="M30.669,18.4c-0.375-0.236-0.49,0.196-0.659,0.489   C30.35,19.035,30.541,18.794,30.669,18.4z"/>
	<path fill-rule="evenodd" clip-rule="evenodd" d="M62.592,36.287c1.171,0.428,2.629-0.121,4.124,0.476   c1.301-0.505,2.908,0.99,4.374,0.918c0.701,0.44,2.356,1.882,3.063,1.122c-0.92-1.052-2.742-2.035-4.361-2.468   c-0.362-0.097-0.741,0.03-1.095-0.036c-0.984-0.182-1.956-0.688-2.905-0.718C64.536,35.538,63.509,36.011,62.592,36.287z"/>
	<path fill-rule="evenodd" clip-rule="evenodd" d="M59.462,32.027c-0.188-0.082-0.374-0.164-0.56-0.245   c-1.684,0.763-3.592,0.95-5.395,1.41c-1.038,1.563-2.928,0.94-4.028,2.344c-0.978,0.068-1.762,0.63-2.691,0.819   c-0.187,0.947-1.178,0.907-1.906,1.053c-0.459,0.736-1.261,0.595-1.708,1.361c-1.956,0.595-3.57,2.065-5.722,2.157   c-0.528,0.691-1.374,0.569-1.895,1.279c-0.467,0.055-0.869,0.28-1.404,0.162c-2.877,1.528-5.896,2.698-8.653,4.536   c-0.965-0.034-1.828,0.199-2.506,0.901c-0.834-0.027-1.506,0.359-2.092,0.972c-1.113-0.084-1.828,0.855-2.918,0.831   c-0.397,0.237-0.619,0.92-1.195,0.697c-0.029,1.021-1.134,1.242-1.085,1.968c1.47,0.005,2.229-1.811,3.742-1.691   c0.125-0.074,0.232-0.196,0.297-0.426c1.322,0.088,2.118-1.168,3.402-1.173c0.579-1.009,1.667-0.728,2.64-0.953   c1.26-0.292,2.333-1.585,3.834-1.651c0.667-0.8,1.614-0.878,2.285-1.665c0.524-0.109,1.082-0.129,1.579-0.306   c0.094-0.221,0.281-0.205,0.339-0.52c0.422-0.104,0.823-0.263,1.311-0.203c1.678-1.107,3.508-1.827,5.39-2.413   c0.06-0.24,0.259-0.128,0.297-0.425c2.912-0.982,5.577-2.594,8.211-4.287c0.162-0.112,0.44,0.073,0.64,0.06   c1.846-1.141,3.733-2.171,5.938-2.395C56.618,32.899,58.79,33.557,59.462,32.027z"/>
	<path fill-rule="evenodd" clip-rule="evenodd" d="M55.326,39.433c-0.049,0.231-0.023,0.556-0.286,0.652   c-0.75,0.186-1.386,0.669-2.248,0.568c-0.157,0.063-0.251,0.284-0.339,0.519c-0.249,0.023-0.563-0.127-0.774-0.007   c-1.022,1.142-2.549,0.988-3.637,1.96c-1.116-0.451-1.757,0.578-2.587,1.087c-0.391,0.24-0.875,0.163-1.258,0.337   c-0.778,0.355-1.238,1.006-1.894,1.28c-0.167,0.166-0.475-0.029-0.682,0.034c-1.123,1.147-2.608,1.362-3.747,2.467   c-0.283-0.065-0.544-0.076-0.827-0.141c-3.013,2.635-6.724,3.482-9.814,5.916c-0.503,0.095-0.917,0.419-1.486,0.348   c-0.535,0.293-0.957,0.728-1.451,1.03c-0.644,0.394-1.526,0.493-1.987,1.238c-0.663,0.085-1.34,0.133-1.941,0.372   c-0.125,0.205-0.3,0.285-0.379,0.611c-0.493,0.387-1.255,0.081-1.806,0.318c-0.826,1.645-2.543,1.003-3.375,2.631   c2.127,0.238,3.354-1.828,5.477-1.599c0.165-0.698,0.686-0.486,0.904-1.049c0.454-0.024,0.896-0.078,1.364-0.067   c2.956-1.658,5.948-3.224,9.015-4.601c1.656-1.824,3.898-2.146,5.589-3.879c0.587-0.079,1.064-0.438,1.712-0.36   c0.096-0.221,0.282-0.204,0.339-0.518c3.074-1.29,5.856-3.331,9.026-4.374c0.671-0.788,1.574-0.979,2.547-0.994   c1.911-1.899,4.779-1.34,6.772-3.029c1.12-0.226,2.177-0.619,3.122-1.296c0.697,0.158,1.276-0.321,1.98-0.464   c0.776-0.159,1.629,0.183,2.564,0.234c0.848,0.048,2.059-0.243,3.099,0.027c0.802,0.208,1.52,0.755,2.235,0.98   c0.831,0.262,1.738,0.662,2.422,1.063c0.375,0.22,0.501,0.551,0.862,0.822c0.581,0.437,1.313,0.653,1.833,1.137   c0.863,0.805,1.03,2.078,2.06,2.903c0.981,0.789,1.752,1.572,2.491,2.426c0.288,0.994,0.323,2.087,1.19,2.855   c-0.125-1.122-0.337-1.76-0.242-2.995c-0.454-0.542-1.022-1.041-1-1.772c-2.035-1.701-3.019-3.814-5.149-5.479   c-0.263-0.144-0.379,0.085-0.642-0.059c-2.875-2.293-7.283-2.8-10.708-3.696c-0.534,0.409-1.396-0.015-1.782,0.772   c-1.636-0.3-2.535,1.288-4.19,0.94C57.186,39.58,56.122,39.166,55.326,39.433z"/>
	<path fill-rule="evenodd" clip-rule="evenodd" d="M79.054,43.839c-0.294,0.554,0.425,1.176,0.912,0.956   C80.092,44.311,79.64,43.342,79.054,43.839z"/>
	<path fill-rule="evenodd" clip-rule="evenodd" d="M62.324,36.392c-0.513-0.203-1.184,0.059-1.205,0.471   C61.581,36.938,62.284,36.76,62.324,36.392z"/>
	<path fill-rule="evenodd" clip-rule="evenodd" d="M58.842,40.53c1.61,0.628,2.664-0.166,4.154,0.155   c0.328,0.115,0.447-0.304,0.71-0.355c1.245,0.323,2.624,0.035,3.774,0.767c0.249-0.221,0.578-0.232,0.897-0.273   c1.47,0.689,2.483,1.288,3.522,2.1c0.657,0.514,1.222,0.87,1.938,1.406c0.592,0.442,1.025,0.947,1.31,1.574   c1.948,1.247,2.906,2.881,3.782,4.547c0.99,0.469,0.999,1.712,1.652,2.059c0.327-1.261-0.878-1.924-0.884-3.054   c-0.913-1.394-1.797-2.799-3.388-3.929c-0.404-0.743-1.243-1.315-1.518-2.109c-1.742-1.18-4.004-2.983-6.846-3.892   c-0.34-0.145-0.468,0.252-0.765,0.221c-2.128-0.508-4.182-0.824-5.784,0.019c-0.306-0.129-0.472,0.108-0.826-0.141   C60.145,40.307,59.191,39.642,58.842,40.53z"/>
	<path fill-rule="evenodd" clip-rule="evenodd" d="M60.664,36.885c-0.309-0.065-0.567-0.001-0.711,0.355   C60.262,37.306,60.519,37.242,60.664,36.885z"/>
	<path fill-rule="evenodd" clip-rule="evenodd" d="M52.212,42.732c-0.399,1.089-1.234,1.058-1.988,1.24   c-1.714,1.607-4.138,1.4-5.862,2.982c-0.276,0.02-0.616-0.128-0.869-0.047c-0.559,0.411-0.937,1.291-1.719,1.134   c-0.078,0.326-0.253,0.405-0.379,0.612c-1.678,0.449-2.918,2.021-4.72,2.15c-0.424,1.01-1.721,0.665-1.924,1.601   c-0.898,0.151-1.962,0.888-2.43,1.488c-1.206-0.186-1.764,1.284-2.897,1.285c-0.191,0.255-0.054,0.382-0.151,0.602   c-0.184,0.188-0.483,0.082-0.775-0.008c-1.21,0.974-3.157,1.633-4.5,2.914c-2.686,0.637-4.986,2.261-7.482,3.384   c-0.155-0.068-0.311-0.138-0.465-0.204c-0.498,0.242-0.819,0.936-1.463,0.801c-0.097,0.375-0.193,0.746,0.139,0.951   c0.285-0.247,0.668-0.398,0.327-0.747c1.042,0.169,2.154,0.509,2.755-0.456c0.46,0.009,1.3,0.101,1.246-0.563   c0.249-0.023,0.565,0.126,0.775,0.007c0.96-0.577,1.855-1.314,3.082-1.204c0.875-0.61,1.766-1.26,2.722-1.139   c0.071-0.434,0.156-0.422,0.367-0.838c0.482-0.15,0.943-0.356,1.434-0.483c1.711-1.75,4.022-1.96,5.735-3.705   c2.622-1.198,5-3.02,7.622-4.211c0.228-0.407,0.546-0.582,0.822-0.861c1.067,0.16,1.649-0.922,2.692-0.819   c2.433-2.34,5.708-2.521,8.344-4.339c0.859,0.157,1.618,0.057,2.104-0.742c0.495-0.003,0.99,0.088,1.498-0.122   c0.198-0.083,0.339-0.381,0.523-0.438c0.302-0.09,0.745,0.062,1.229-0.016c3.062-0.488,7.245-1.416,10.259,0.167   c3.961,2.08,6.671,4.778,9.675,7.575c0.103-1.302-1.363-1.991-1.752-3.101c-0.715-0.236-0.818-0.71-1.462-0.974   c-0.432-0.759-1.356-1.324-1.746-2.098c-2.017-0.542-2.387-2.5-4.256-2.2c-1.352-0.733-3.158-1.167-4.427-1.052   c-1.992-0.673-3.821,0.388-5.971-0.064c-1.297,0.627-2.85,0.613-4.019,1.569C53.457,42.36,53.021,43.024,52.212,42.732z"/>
	<path fill-rule="evenodd" clip-rule="evenodd" d="M14.708,65.943c0.175,0.371,0.738,0.054,1.054,0.128   c0.125-0.073,0.232-0.194,0.297-0.426c2.29-0.268,4.251-1.374,6.415-1.963c0.094-0.22,0.281-0.204,0.338-0.517   c0.938-0.303,1.716-1.016,2.722-1.141c0.082-0.187,0.164-0.372,0.245-0.559c1.012-0.572,1.888-1.494,3.112-1.523   c0.407-0.868,1.292-0.513,1.708-1.361c4.141-2.25,8.105-4.953,12.36-6.909c1.743-1.404,3.744-2.147,5.782-2.797   c0.138-0.171,0.347-0.165,0.431-0.477c0.319-0.106,0.665-0.145,1.043-0.099c0.466-0.716,1.336-0.4,1.707-1.361   c1.311-0.404,2.699-0.606,3.795-1.558c1.549,0.013,2.931-0.405,4.23-1.034c3.45,0.366,7.327-0.416,10.518,2.613   c0.157,0.013,0.294-0.035,0.452-0.022c0.27,0.204,0.408,0.459,0.448,0.751c0.249,0.108,0.517,0.269,0.692,0.193   c0.339,0.872,1.177,1.054,2.126,1.487c1.509,0.689,2.056,2.499,3.452,2.514c0.224,0.351,0.025,0.866,0.646,1.061   c0.392,1.005,0.586,2.088,1.378,2.938c0.608-1.441-0.552-3.86-1.884-4.826c-0.181-0.131-0.395-0.044-0.598-0.151   c-1.176-0.616-1.743-1.916-2.731-2.641c-0.755-0.555-1.856-0.736-2.042-1.673c-1.82-0.686-2.729-2.065-4.484-2.189   c-1.903-1.884-4.918-0.698-7.123-1.235c-0.247,0.157-0.515,0.264-0.751,0.448c-1.463-0.844-2.001,0.677-3.314,0.213   c-0.126,0.075-0.232,0.196-0.298,0.425c-0.393-0.019-0.701,0.18-1.137,0.058c-1.098,1.078-2.803,0.598-3.77,2.012   c-0.339,0.136-0.336-0.083-0.735-0.1c-0.064,0.229-0.171,0.352-0.297,0.425c-0.996-0.243-1.587,0.55-2.476,0.581   c-0.236,0.117-0.044,0.122-0.164,0.372c-1.627,0.449-2.898,1.807-4.639,1.965c-0.885,0.831-2.038,0.978-2.861,1.966   c-0.166,0.236-0.475,0.104-0.723,0.127c-1.565,1.993-3.982,1.801-5.549,3.788c-1.957,0.986-3.951,1.878-5.706,3.386   c-1.586,0.288-2.587,2.074-4.319,1.994c-1.609,2.203-4.324,1.58-6.118,3.313C16.588,64.033,15.804,65.386,14.708,65.943z"/>
	<path fill-rule="evenodd" clip-rule="evenodd" d="M15.563,67.539c0.232,0.406-0.12,0.655-0.128,1.055   c1.217-0.575,2.636-0.634,3.648-1.732c0.748,0.264,1.412-0.185,1.788,0.227c0.308-0.527,0.84-0.46,1.213-1.244   c1.465,0.588,1.967-1.291,3.321-0.987c0.403-0.5,1.004-0.579,1.119-1.286c1.328-0.117,1.816-1.375,3.31-1.215   c1.068-1.089,2.445-1.383,3.364-2.857c0.257-0.201,0.625-0.112,1.002-0.003c0.21-0.323,0.568-0.261,0.689-0.812   c2.328-1.42,4.741-2.622,6.876-4.536c2.172-0.767,4.185-1.94,6.223-3.048c0.711,0.105,1.055-0.729,1.847-0.412   c1.296-1.099,2.863-1.5,4.255-2.355c1.076-0.012,1.954-0.531,2.813-1.099c3.371-0.594,7.038-1.399,10.764,0.278   c0.876,0.394,1.694,1.498,2.655,2.053c0.122,0.069,0.405,0.036,0.507,0.111c0.766,0.552,1.385,1.537,2.858,1.586   c0.063,0.207,0.134,0.411,0.17,0.63c3.032,2.11,3.216,5.744,5.007,8.084c0.547-1.273-0.639-2.527-0.515-3.894   c-0.536-0.715-0.978-1.47-1.075-2.358c-0.616-0.32-0.929-1.22-1.642-1.83c-0.558-0.479-1.354-0.697-1.617-1.377   c-0.29-0.214-0.438-0.069-0.643-0.059c-2.021-1.367-3.201-3.047-5.244-3.744c-0.443-0.625-1.944-1.401-2.648-1.05   c-0.526-0.547-1.237-0.236-1.737-0.094c-0.221-0.095-0.203-0.281-0.518-0.339c-1.391,0.328-3.072-0.09-4.504,0.135   c-1.248,1.088-3.026,0.815-4.328,1.768c-1.089,0.188-2.502,0.568-3.071,1.43c-0.261,0.057-0.533,0.086-0.816,0.086   c-0.232,0.351-0.594,0.71-0.956,0.914c-0.309,0.173-0.721,0.11-1.125,0.284c-0.294,0.127-0.524,0.447-0.792,0.541   c-1.055,0.371-2.172,0.673-3.175,1.162c-0.639,0.313-1.064,1.076-1.865,0.961c-0.551,0.936-1.764,0.988-2.565,1.541   c-0.335,0.23-0.494,0.642-0.821,0.861c-0.766,0.514-1.782,0.704-2.587,1.086c-0.379,1.007-1.178,0.94-1.697,1.59   c-0.208,0.123-0.543-0.072-0.775-0.005c-0.573,0.769-1.337,1.053-2.068,1.423c-0.069,0.155-0.136,0.312-0.205,0.467   c-1.424,0.833-2.922,1.479-4.452,2.045c-0.442,0.583-0.932,1.04-1.585,1.083c-0.28,0.536-0.758,0.563-1.037,1.1   c-1.326,0.432-2.636,0.901-3.73,1.92C18.866,65.318,17.502,67.164,15.563,67.539z"/>
	<path fill-rule="evenodd" clip-rule="evenodd" d="M31.01,62.204c-0.193,0.23,0.025,0.301-0.111,0.509   c-2.647,0.404-4.393,3.123-7.068,3.452c-0.083,0.188-0.164,0.373-0.246,0.56c-1.213,0.252-2.131,1.265-3.339,1.535   c-0.125,0.206-0.301,0.285-0.378,0.61c-0.944,0.023-1.845,0.156-2.663,0.499c-0.537,0.991-1.882,0.542-2.099,1.746   c0.563-0.208,1.189-0.247,1.65-0.721c1.34,0.533,1.893-0.951,3.262-0.347c0.249-0.287,0.63-0.232,0.781-0.769   c1.165-0.25,2.111-1.056,3.311-1.214c0.677-1.432,2.138-0.849,2.85-2.194c2.522-0.925,4.75-2.6,7.19-3.732   c0.068-0.155,0.137-0.312,0.205-0.467c1.554-0.637,2.787-2.096,4.429-2.501c1.348-1.496,3.128-1.877,4.477-3.369   c3.388-2.067,7.151-3.177,10.477-5.401c0.894-0.153,1.754-0.388,2.505-0.9c2.675-0.273,5.508-1.791,8.759-0.715   c1.436,0.475,3.372,1.727,4.517,2.869c4.202,1.887,4.745,5.202,6.6,8.004c-0.186,0.354,0.183,0.494-0.05,0.867   c0.814,0.841,0.563,2.098,1.646,2.834c0.731-0.919,0.265-2.119-0.509-2.891c-0.27-2.47-1.795-4.448-2.883-6.597   c-0.204-0.126-0.365-0.142-0.507-0.111c-0.256-1.253-1.414-1.592-3.195-2.845c-0.975-0.684-1.464-1.105-2.405-1.609   c-0.767-0.412-1.433-1.187-2.029-1.446c-0.3-0.13-0.638-0.032-1.057-0.13c-1.517-0.353-2.362-0.903-3.43-0.283   c-0.406-0.039-0.412-0.279-0.787-0.233c-1.103,0.471-2.42,0.395-3.402,1.173c-0.456-0.07-0.469-0.234-0.88-0.274   c-2.371,0.917-4.54,2.347-6.998,3.04c-0.272,0.393-0.644,0.827-1.09,0.966c-1.682,0.526-3.499,1.105-5,2.028   c-1.145,1.026-2.504,1.498-3.602,2.643c-0.173,0.083-0.398,0.037-0.641-0.06c-0.862,1.223-2.222,1.165-3.066,2.433   c-0.339,0.12-0.644,0.332-1.083,0.19c-0.304,0.81-1.128,0.917-1.668,1.27C32.678,61.148,32.078,62.401,31.01,62.204z"/>
	<path fill-rule="evenodd" clip-rule="evenodd" d="M58.899,49.775c1.24,0.54,2.193,0.342,3.151,0.16   c1.438,0.244,3.999,1.583,5.644,2.585c2.911,1.779,4.559,4.68,5.509,7.193c0.279,0.122,0.558,0.244,0.838,0.367   c0.225,0.298,0.143,0.717,0.058,1.136c1.634,1.319,1.209,3.44,2.389,4.937c0.61-0.861-0.001-2.168-0.293-3.129   c-0.225-0.736-0.075-1.232-0.721-1.648c-0.201-1.022-0.402-2.162-0.977-3.095c-0.869-1.406-2.584-2.446-2.85-4.136   c-1.418-0.859-2.658-2.176-4.293-2.882c-0.37-0.14-0.394-0.413-0.622-0.608c-1.379-0.747-2.512-1.392-4.325-1.786   C61.422,49.646,59.775,48.723,58.899,49.775z"/>
	<path fill-rule="evenodd" clip-rule="evenodd" d="M80.23,56.352c-0.308-0.13-0.532-0.046-0.879-0.273   c-0.112,0.498,0.504,0.3,0.407,0.845C80.094,56.929,79.938,56.639,80.23,56.352z"/>
	<path fill-rule="evenodd" clip-rule="evenodd" d="M50.105,53.362c2.276,0.869,3.817-1.82,6.17-1.404   c0.975-0.82,2.076-0.175,3.285,0.106c0.856,0.2,1.905-0.219,2.872,0.039c1.164,0.311,2.471,1.25,3.604,1.913   c1.354,0.792,1.998,1.361,2.8,2.228c1.417,2.047,2.15,4.359,4.05,6.218c-0.057,0.316-0.281,0.205-0.338,0.52   c1.396,1.823,1.137,4.292,2.808,6.009c0.168-0.994-0.245-1.758-0.003-2.78c-0.563-0.089-0.197-0.542-0.314-0.803   c-0.552-0.429-0.527-1.083-0.722-1.65c0.2-0.488,0.588-0.431,0.409-0.932c-0.362-0.334-0.343,0.311-0.63,0.169   c-0.406-0.278-0.249-0.778-0.243-1.218c-0.96-0.836-0.938-2.053-1.966-2.862c-0.171-0.396-0.265-0.822-0.337-1.26   c-0.774-0.464-0.9-1.528-1.798-2.229c-0.181-0.143-0.476-0.122-0.652-0.288c-0.517-0.484-0.763-1.259-1.496-1.655   c-0.504-0.272-1.175-0.332-1.717-0.643c-1.248-0.711-1.966-1.587-3.697-1.954c-0.834-0.176-1.731-0.068-2.553-0.008   c-2.246-0.81-3.944-0.216-5.731,0.152C52.837,52.316,51.07,51.808,50.105,53.362z"/>
	<path fill-rule="evenodd" clip-rule="evenodd" d="M38.367,62.655c-0.081,0.313-0.065,0.591-0.048,0.867   c-0.209,0.517-0.43,1.008-0.706,1.356c-1.783,1.234-3.342,3.042-5.217,4.044c-1.169,0.499-2.257,1.209-3.316,1.988   c-0.304-0.054-0.623-0.146-0.867-0.047c-0.174,0.274,0.193,0.338-0.059,0.641c-1.821,0.943-3.634,1.899-6.141,1.084   c-0.132,0.257-0.341,0.313-0.473,0.571c-1.05,0.079-2.135,0.067-2.971,0.694c-0.44-0.202-0.772-0.131-1.147-0.169   c-0.556,0.423-1.582-0.361-1.98,0.465c0.627,0.218,1.213,0.09,1.531,0.56c0.363,0.14,0.454-0.421,0.804-0.313   c0.372-0.019,0.347,0.177,0.746,0.327c1.369-0.516,3.033-0.276,4.375-0.858c0.769,0.229,1.781,0.279,2.511,0.101   c0.395-0.097,0.57-0.439,0.926-0.593c0.419-0.182,1.108-0.271,1.661-0.494c0.362-0.146,0.335-0.326,0.659-0.489   c0.511-0.258,1.197-0.287,1.701-0.586c0.676-0.403,1.075-1.17,1.894-1.28c2.94-2.623,6.134-4.595,8.907-7.646   c0.138-0.239,0.465,0.005,0.629-0.168c1.325-1.152,2.977-1.891,4.5-2.914c1.336-0.897,2.393-1.541,3.73-1.92   c1.719-1.466,5.986-2.088,8.577-3.346c0.343-0.169,0.674,0.134,1.281,0.116c0.219-0.006,0.474-0.261,0.67-0.263   c0.233-0.001,0.521,0.222,0.787,0.234c0.344,0.018,1.119-0.19,1.642,0.054c0.51,0.239,0.813,0.865,1.38,1.16   c1.051,0.548,2.133,1.004,3.056,1.896c0.354,1.482,2.238,2.369,2.251,3.985c2.31,1.886,1.474,5.389,3.279,7.215   c0.196,0.703-0.075,1.975,0.837,2.145c0.387-1.018-0.287-1.568-0.045-2.686c-0.24-0.06-0.128-0.259-0.424-0.298   c-0.083-1.743-0.96-3.178-1.201-4.858c-1.32-0.926-0.851-2.552-2.269-3.438c-0.634-1.375-1.854-2.52-2.787-3.777   c-1.397-0.644-2.613-2.164-4.279-2.653c-1.269-0.373-2.744,0.302-3.875-0.034c-0.391,0.382-0.889,0.492-1.274,0.886   c-0.711,0.095-1.479,0.04-2.022,0.557c-4.871,0.516-8.757,3.545-12.861,6.023c-1.211-0.266-2.024,0.486-2.75,1.46   C39.528,62.596,38.762,62.15,38.367,62.655z"/>
	<path fill-rule="evenodd" clip-rule="evenodd" d="M15.897,72.349c0.16,0.742,0.99-0.05,1.52,0.335   c1.426-0.566,2.875-1.077,4.55-1.004c0.819-1.209,2.569-1.058,3.119-2.299c3.903-1.738,7.583-4.047,11.247-6.398   c0.73,0.024,1.164-0.711,1.876-0.731c0.082-0.186,0.164-0.372,0.246-0.56c0.744-0.542,1.868-0.8,2.751-1.459   c0.446-0.333,0.591-0.803,0.986-1.234c0.737-0.806,1.713-1.206,2.675-2.049c0.784-0.684,2.096-1.508,2.914-1.832   c0.806-0.317,1.775-0.501,2.923,0.173c0.724-0.459,1.758-0.115,2.319-0.982c2.184-0.148,4.237-0.619,6.013-1.807   c-0.053-0.082-0.107-0.164-0.237-0.217c-1.85,0.135-3.762,0.52-5.5,1.145c-1.18,0.422-2.09,1.312-3.758,0.462   c-1.298,0.301-2.494,0.865-3.816,1.103c-0.404,0.679-1.043,0.758-1.637,0.948c-1.479,0.914-2.462,2.5-3.929,3.388   c-0.378,0.228-0.967,0.257-1.341,0.523c-0.231,0.164-0.311,0.473-0.513,0.662c-0.618,0.582-1.451,0.496-2.185,0.931   c-0.838,0.497-1.571,1.33-2.408,1.943c-0.786,0.576-1.894,0.758-2.669,1.273c-0.246,0.163-0.384,0.476-0.607,0.624   c-0.691,0.461-1.494,0.459-2.144,0.836c-0.862,1.614-2.499,1.246-3.416,2.723c-0.166,0.165-0.474-0.027-0.681,0.034   c-0.596,1.243-1.86,0.772-2.553,1.77c-0.79,0.084-1.407,0.617-2.353,0.301c-0.418,0.379-0.957,0.449-1.37,0.842   C17.271,71.917,16.091,71.724,15.897,72.349z"/>
	<path fill-rule="evenodd" clip-rule="evenodd" d="M27.848,74.481c-0.07-0.203-0.454-0.287-0.303-0.576   c-0.364,0.079-0.495,0.314-0.554,0.756c-0.191,0.192-0.301-0.284-0.652-0.286c-0.238,0.175-0.386,0.267-0.379,0.612   c-0.978-0.266-1.648,0.261-2.644-0.05c-0.65,0.843-1.904,0.136-2.599,0.86c-1.502-0.286-2.617,0.418-4.089,0.206   c-0.101,0.297,0.018,0.508-0.007,0.774c1.713-0.227,3.909,0.783,5.214-0.491c1.046,0.239,2.066,0.414,2.768-0.229   c1.206,0.517,1.784-0.574,3.004-0.016c0.594-0.723,1.558-0.496,2.018-1.559c0.195-0.161,0.48-0.092,0.67-0.262   c3.856-3.442,8.16-5.736,11.915-9.438c0.178-0.202,0.487-0.068,0.722-0.128c1.575-1.502,3.348-2.501,5.158-3.402   c2.872-3.524,7.217-3.273,10.979-4.517c0.907,0.212,1.725,0.2,2.459-0.032c4.422,1.806,6.188,5.231,7.757,8.4   c0.375,1.024,0.288,2.474,0.813,3.466c0.115,0.219,0.441,0.407,0.583,0.7c0.54,1.132,0.202,2.664,1.183,3.63   c-0.188,0.485,0.09,0.789-0.116,1.28c0.641,0.522,0.081,1.515,0.784,2.012c0.536-0.752-0.02-1.219,0.28-1.654   c-0.235-0.938-0.441-1.887-0.375-2.942c-1.291-2.815-1.248-6.153-3.308-8.669c-0.806-3.168-3.808-5.979-7.833-7.213   c-1.893,0.23-3.865,0.256-5.71,0.605c-0.883,0.707-2.088,0.587-2.989,1.244c-0.273-0.174-0.402,0.024-0.693-0.193   c-1.049,0.569-2.062,1.238-3.14,1.845c-1.41,0.793-2.881,2.337-4.604,2.646c-1.717,1.536-3.523,2.843-5.298,4.23   c-0.096,0.218-0.191,0.435-0.286,0.652c-1.8,0.993-3.296,2.767-5.251,3.361c-0.425,0.968-1.429,1.599-2.418,1.716   C30.018,73.051,28.762,73.328,27.848,74.481z"/>
	<path fill-rule="evenodd" clip-rule="evenodd" d="M48.329,61.469c0.968,1.056,1.628-0.158,2.382-0.623   c1.19-0.732,3.098-0.916,4.062-1.662c1.421,0.143,2.758,0.078,3.942-0.379c1.676,0.871,4.259-0.009,4.846,2.123   c1.372,0.384,2.259,1.506,2.408,2.612c0.648,0.364,0.951,0.864,1.298,1.346c0.038,0.252-0.167,0.255-0.149,0.601   c1.043,1.703,0.726,3.938,1.74,5.651c-0.321,0.82,0.039,1.374,0.238,1.993c-0.374,0.68-0.315,1.599,0.021,2.229   c-0.354,1.477,0.029,2.667-0.381,4.166c0.217,0.094,0.433,0.19,0.652,0.285c-0.088,0.375-0.47-0.015-0.631,0.168   c-0.042,1.072-0.449,2.287-0.065,3.193c0.95-1.46,0.637-2.896,0.794-4.096c0.019-0.141,0.261-0.368,0.257-0.331   c0.028-0.339-0.167-0.467-0.128-0.723c0.166-1.072,0.251-1.505,0.236-2.563c-0.018-1.341,0.378-2.8,0.156-4.152   c-0.031-0.174-0.303-0.315-0.344-0.484c-0.168-0.66,0.035-1.406-0.104-2.044c-0.274-0.177-0.289-0.453-0.624-0.605   c0.176-1.342-0.577-2.794-1.341-4.033c-0.52-0.839-0.724-1.892-1.182-2.628c-0.969-1.559-3.683-3.276-5.757-3.081   c-2.691-0.956-4.444,0.481-6.868,0.21C51.964,59.574,49.783,59.591,48.329,61.469z"/>
	<path fill-rule="evenodd" clip-rule="evenodd" d="M31.324,75.672c1.557-2.133,5.021-2.805,6.302-6.012   c-0.834-0.153-1.472,0.704-2.081,1.198c-0.955,0.776-1.682,1.777-2.757,2.234c-0.628,0.963-1.539,1.2-2.325,1.757   c-0.366,1.041-1.08,1.191-1.592,1.857c-1.568-0.322-2.54,0.882-4.119,0.526c-0.877,0.521-1.659,0.685-2.662,0.499   c-0.186,0.314-0.467,0.389-0.596,0.849c-0.889-1.047-2.55-0.47-3.762-0.539c-0.176,0.604-0.596,0.584-0.864,0.955   c1.25,0.433,1.937-0.578,3.234-0.027c0.009-0.132-0.036-0.242-0.199-0.308c1.429,1.022,3.119-0.494,4.259,0.424   c0.275-0.085,0.592-0.066,0.699-0.583c0.317,0.056,0.067,0.333,0.384,0.391c1.064-0.374,2.199-0.564,3.333-0.761   c1.583-1.282,3.449-1.846,5.297-2.454c0.072,0.749-1.38,1.773-2.028,1.332c-2.462,2.069-5.385,2.955-8.589,3.122   c-0.193,0.229,0.025,0.299-0.112,0.507c-0.475-0.333-1.01-0.055-1.479-0.428c-0.555,0.312-0.563,0.894-1.015,1.555   c-0.911,0.04-1.872-0.049-2.882-0.265c-0.087,1.476,2.214,0.809,3.237,0.977c0.357-0.387,1.066-0.535,1.131-1.06   c0.532,0.744,2.258,0.664,2.126-0.289c0.474,0.179,0.413,0.135,0.786,0.233c1.219-0.769,2.794-0.622,3.979-1.477   c0.232,0.065,0.435,0.058,0.641,0.059c0.367-0.18,0.69-0.472,1.113-0.511c0.06-0.241,0.258-0.128,0.297-0.425   c1.568-0.811,2.719-1.772,4.051-3.666c1.003-1.428,2.8-2.585,3.679-3.831c0.469-0.663,0.628-1.441,1.429-1.484   c0.308-0.593,0.606-1.218,1.12-1.286c0.099-0.336,0.265-0.505,0.42-0.703c0.626-0.376,1.219-0.752,1.76-1.229   c0.59-0.521,1.13-0.772,1.76-1.227c1.219-0.881,2.4-1.997,3.789-2.561c0.641-0.261,1.554-0.354,2.382-0.622   c0.791-0.252,1.628-0.309,2.343-0.526c1.21-0.37,1.522-0.674,2.931-0.604c1.167,0.06,2.39-0.49,3.583-0.316   c1.741,0.24,2.547,1.313,3.305,2.339c0.898,2.276,2.14,4.415,2.937,6.73c-0.393,0.926,0.461,1.363,0.115,2.271   c0.601,0.538,0.017,1.537,0.651,2.063c-0.48,1.041,0.234,2.271-0.365,3.617c0.286,1.484-0.125,3.24,0.014,4.782   c-0.505,1.008-0.712,2.182-0.504,2.667c0.302,0.14,0.732-1.152,0.911-1.821c0.174-0.656,0.075-1.366,0.364-1.842   c-0.098-0.219-0.124-0.467-0.129-0.723c0.557-1.042,0.416-2.268,0.334-3.296c0.552-2.326,0.328-4.348-0.537-6.122   c0.01-0.158,0.32-0.435,0.112-0.507c-0.58-2.553-0.525-5.355-2.556-7.341c-0.755-2.116-3.953-4.405-6.422-3.595   c-0.446-0.284-0.698-0.072-1.106-0.264c-0.291,0.377-0.779,0.248-1.114,0.512c-1.297-0.285-2.344,0.065-3.345,0.533   c-1.38-0.309-2.334,0.483-3.309,1.215c-1.162-0.278-1.875,0.4-2.732,0.912c-0.875,0.523-2.067,0.795-2.687,1.82   c-1.212,0.587-2.437,1.144-3.229,2.805c-0.976,0.468-1.975,0.876-2.833,1.647c-0.439,2.525-2.238,3.18-3.528,5.005   C33.638,75.003,32.478,75.33,31.324,75.672z"/>
	<path fill-rule="evenodd" clip-rule="evenodd" d="M41.887,60.199c1.391,0.264,2.092-1.234,3.298-1.441   c0.924-1.155,3.982-1.765,4.529-3.235c-0.063-0.026-0.125-0.054-0.187-0.082c-1.309-0.252-1.953,1.196-3.229,1.028   c-0.607,0.491-1.07,1.054-1.655,1.497C43.688,58.686,42.28,58.886,41.887,60.199z"/>
	<path fill-rule="evenodd" clip-rule="evenodd" d="M58.773,61.715c1.236,1.32,3.884,2.089,3.84,3.906   c0.789,0.284,0.436,1.015,0.937,1.412c-0.092,1.245,0.527,2.213,0.895,3.279c-0.163,0.373-0.059,0.642-0.222,1.013   c0.323,0.364,0.564,0.757,0.295,1.353c1.663,1.85,0.531,4.839,0.943,6.967c-0.499,1.56-0.395,2.884-0.558,4.31   c-0.615,0.684-0.913,1.619-0.432,2.255c1.009-0.369,1.057-2.056,1.349-3.074c0.994-3.482,0.734-7.392,0.165-10.258   c-0.062-0.182-0.415-0.251-0.477-0.431c0.142-1.162,0.087-2.249-0.521-3.117c0.396-0.516-0.106-0.679,0.036-1.094   c-0.086-0.2-0.277-0.356-0.438-0.527c-0.368-1.043-1.101-3.394-1.952-4.409C61.891,62.412,60.003,61.316,58.773,61.715z"/>
	<path fill-rule="evenodd" clip-rule="evenodd" d="M75.459,69.256c-0.202-0.123-0.221,0.224-0.401,0.157   c-0.095,0.24,0.251,0.373,0.426,0.297C75.495,69.552,75.448,69.416,75.459,69.256z"/>
	<path fill-rule="evenodd" clip-rule="evenodd" d="M17.814,44.421c-0.246,0.377,0.433,0.856,0.559,0.245   C18.168,44.542,18.068,44.315,17.814,44.421z"/>
	<path fill-rule="evenodd" clip-rule="evenodd" d="M54.292,62.307c0.974,0.515,1.696,0.39,2.481,0.421   c1.516,0.79,3.202,1.791,4.249,2.975c0.638,1.321,0.553,2.924,1.396,4.166c0,3.825-0.786,8.369-1.356,11.956   c0.516,1.463-0.162,3.481-0.698,5.138c-2.257,3.181-4.467,6.493-7.229,8.383c2.725-1.24,5.482-4.037,7.501-7.485   c1.24-2.115,1.416-4.069,1.666-5.822c0.176-1.214,0.572-2.118,0.255-3.112c0.135-0.309,0.271-0.619,0.407-0.93   c-0.419-1.567,0.453-3.006,0.586-4.631c0.03-0.371-0.184-0.753-0.242-1.218c-0.233-1.798-0.107-4.064-0.928-5.738   c-0.208-0.426-0.764-0.951-1.123-1.493c-0.357-0.541-0.395-1.251-1.431-1.293C58.731,61.865,55.738,61.513,54.292,62.307z"/>
	<path fill-rule="evenodd" clip-rule="evenodd" d="M73.746,71.392c-0.18,0.199-0.341,0.446-0.461,0.799   c0.199,0.154,0.366,0.32,0.705,0.419C74.141,72.114,74.409,71.572,73.746,71.392z"/>
	<path fill-rule="evenodd" clip-rule="evenodd" d="M19.271,84.161c1.851,0.982,2.761-0.447,4.422,0.05   c1.294-0.771,2.849-0.877,4.312-1.22c0.63-0.76,1.518-0.859,2.36-1.075c4.101-2.749,7.723-6.721,11.56-10.148   c1.017-1.218,1.972-2.598,3.206-3.259c1.131-1.853,2.917-2.026,4.198-3.492c1.101,0.063,2.752-1.16,4.044-1.114   c0.944,0.033,2.058,0.688,3.195,1.068c1.55,0.521,2.447,0.859,3.203,2.07c-0.036,1.044,0.734,1.773,0.242,2.994   c0.87,0.486,0.531,1.968-0.108,3.286c0.049,0.366,0.372,0.626,0.461,0.98c-0.161,0.918-0.164,1.688-0.36,2.84   c-0.08,0.481,0.113,1.055,0.029,1.458c-0.056,0.26-0.332,0.415-0.421,0.705c-0.285,0.927-0.111,2.147-0.438,3.027   c-0.438,1.175-1.587,2.914-2.225,3.802c-1.088,1.516-1.931,3.445-3.179,4.714c-0.559,0.569-1.564,1.123-2.273,1.892   c-0.354,0.387-0.466,0.853-0.851,1.182c-0.794,0.685-1.778,0.889-2.47,1.584c0.979,0.006,1.832-0.316,2.441-1.262   c2.646-1.234,5.41-4.783,7.499-8.487c0.758-1.346,1.893-2.684,2.375-4.402c0.096-0.341-0.026-0.719,0.036-1.093   c0.529-3.271,1.301-7.204,1.033-10.212c-0.019-0.216-0.184-0.493-0.22-0.763c-0.363-2.582-2.112-5.195-5.885-5.58   c-3.649-2.046-6.101,0.381-8.71,1.623c-0.1,0.403-0.322,0.492-0.46,0.798c-0.248,0.223-0.59,0.203-0.898,0.272   c-0.082,0.188-0.164,0.373-0.245,0.56c-1.157,0.608-1.889,1.57-2.786,2.555c-0.364,0.398-0.911,0.585-1.318,0.978   c-1.144,1.104-1.757,3.268-3.702,3.375c-0.47,0.717-1.45,1.299-1.395,2.166c-1.831,1.971-3.76,3.687-5.905,4.854   c-1.241-0.478-1.684,1.088-2.877,0.736c-0.092,0.423-0.374,0.361-0.513,0.665c-0.426-0.24-0.547-0.193-0.402,0.155   c-0.297-0.039-0.184-0.235-0.425-0.297c-0.125,0.075-0.232,0.195-0.297,0.425c-2.429-0.293-3.705,1.281-6.088,1.218   C19.38,83.912,19.325,84.036,19.271,84.161z"/>
	<path fill-rule="evenodd" clip-rule="evenodd" d="M56.532,66.066c0.26,0.846,1.047,1.082,1.454,1.749   c0.592,0.965,0.45,2.983,0.456,4.531c0.003,0.385,0.239,0.786,0.191,1.084c-0.102,0.633-0.596,1.022-0.787,1.543   c-0.239,0.651-0.28,1.736-0.555,2.533c-0.072,0.21-0.373,0.372-0.473,0.57c-0.412,0.817-0.507,2.141-0.771,2.771   c-0.779,1.85-2.053,3.446-2.982,5.025c-0.881,1.495-1.43,2.775-2.449,3.813c-0.444,0.451-1.269,0.941-1.895,1.281   c-0.512,0.278-1.188,0.361-1.649,0.72c-0.208,0.163-0.308,0.517-0.512,0.664c-0.796,0.574-1.579,0.76-2.431,1.489   c-1.134,0.972-2.672,1.301-3.812,2.105c0.879,0.122,1.926-0.32,2.279-0.89c0.227,0.11,0.211,0.302,0.465,0.204   c2.255-1.411,4.475-2.912,6.807-4.123c-0.917,1.143-2.659,1.894-3.754,3.24c-0.187,0.248-0.601-0.087-0.764,0.22   c-0.27,0.761-0.888,0.938-1.532,1.217c0.491,0.134,1.561,0.042,2.126-0.289c-0.207-0.137-0.277,0.081-0.507-0.111   c1.548-1.554,3.946-2.185,5.34-4.323c0.171-0.264,0.182-0.607,0.368-0.839c0.474-0.587,1.017-0.676,1.563-1.535   c1.286-2.03,2.563-3.89,3.43-6.05c1.403-2.181,1.169-5.008,2.681-7.378c0.473,1.632-1.13,3.596-1.141,5.387   c1.478-0.586,1.22-1.938,1.604-3.405c0.194-0.736,0.5-1.443,0.444-2.027c-0.044-0.478-0.555-1.018-0.533-1.566   c0.021-0.535,0.421-0.956,0.521-1.439c0.296-1.442-0.457-2.821-0.34-4.037C58.571,67.511,58.056,65.028,56.532,66.066z"/>
	<path fill-rule="evenodd" clip-rule="evenodd" d="M34.227,79.945c0.564-0.469,1.194-0.768,1.604-1.63   c2.281-0.946,3.874-3.658,5.986-5.039c2.889-2.889,5.279-7.051,9.042-7.698c0.892-0.885,2.229-1.046,3.426-0.721   c1.623,0.443,1.592,1.166,2.014,1.994c0.41,0.808,1.224,1.54,1.447,2.524c0.25,1.1,0.068,2.19-0.252,3.109   c0.516,1.074-0.45,2.405-0.901,3.827c-0.153,0.479-0.127,1.004-0.291,1.428c-0.742,1.894-1.724,3.642-2.208,5.029   c-0.416,0.315-0.701,0.971-1.119,1.287c-0.71,3.991-3.751,5.902-6.018,7.136c-0.532,0.29-0.9,0.735-1.317,0.978   c-0.715,0.415-1.58,0.574-2.226,1.022c-1.293,0.9-2.002,0.687-3.549,1c-0.861,0.175-1.62,0.655-2.301,0.436   c1.757-0.971,3.803-1.204,5.746-1.702c-0.199-0.103-0.098-0.323,0.018-0.548c0.625,0.108,0.716-0.494,1.142-0.832   c0.711-0.563,1.818-0.82,2.256-1.344c0.36-0.43,0.451-0.986,0.747-1.449c0.361-0.567,0.906-0.922,1.428-1.483   c1.106-1.191,1.713-2.589,2.846-3.196c0.654-1.241,1.37-2.362,2.217-3.026c-0.321-0.236,0.021-0.729-0.099-1.045   c0.301,0.112,0.524,0.024,0.67-0.261c-0.42-0.563,0.021-0.341,0.192-0.692c0.089-0.182-0.169-0.402-0.117-0.496   c0.11-0.189,0.421-0.095,0.444-0.249c0.051-0.35-0.286-0.736-0.149-1.177c0.063-0.208,0.357-0.388,0.47-0.569   c0.448-0.728,0.627-1.913,0.936-3.147c0.258-1.024,0.202-1.257,0.177-1.921c-0.023-0.676,0.206-1.467,0.136-1.828   c-0.133-0.688-0.778-2.166-1.519-2.111c-1.288,1.789-1.287,3.479-1.928,5.153c-0.495,1.301-1.526,2.546-2.49,3.907   c-1.704,2.408-3.349,4.354-4.938,5.942c-0.497,0.497-1.219,1.469-1.684,1.816c-0.547,0.407-1.208,0.348-0.957,0.913   c-2.516,1.862-4.895,4.081-7.816,4.904c-0.249-0.109-0.497-0.218-0.746-0.327c-1.051,1.068-2.788,0.373-3.793,1.558   c-1.557-0.21-2.975,0.924-4.45,0.271c-0.054,0.333-0.005,0.229-0.257,0.331c-0.488-0.307-0.948-0.236-1.211-0.531   c0.893-0.482,2.184,0.056,2.919-0.83c1.239,0.406,1.981-0.461,3.233-0.026c0.056-0.149-0.207-0.178-0.064-0.36   c1.399-0.24,2.562-1.086,3.834-1.651c0.725-0.647,1.408-1.404,2.493-1.128c-0.116,1.367-1.98,0.979-2.22,2.024   c1.18-0.273,2.365-0.533,3.036-2.111c0.965-0.496,1.948-0.946,2.937-1.378c0.452-1.021,1.221-1.226,2.029-1.332   c0.404-1.52,1.763-2.423,2.822-3.649c0.772-0.895,1.67-1.738,2.465-2.585c1.532-1.629,2.949-3.396,3.949-5.709   c-1.23,1.657-2.591,2.988-3.714,4.924c-2.172,1.026-3.724,3.648-5.603,5.43c-1.697,1.322-3.434,2.543-5.187,3.724   c-1.639-0.306-2.536,1.286-4.085,1.206c-0.2,0.834-1.41,0.719-1.935,1.374c-1.179-0.051-1.993,0.826-3.355,0.306   c1.706-0.906,3.703-1.063,5.308-2.226c0.358-0.003,0.675-0.118,1.043-0.099c0.277-0.41,0.722-0.391,0.956-0.913   c2.438-0.638,4.294-2.39,6.446-4.061c0.118-0.093,0.096-0.361,0.204-0.466c0.192-0.188,0.568-0.216,0.71-0.354   c1.777-1.724,3.333-4.312,5.213-5.046c1.616-2.258,3.482-3.871,4.957-6.49c-0.294-0.605,0.353-1.58,0.476-2.348   c-1.278-0.235-2.215,0.396-3.188,0.936c-1.715,2.339-4.14,3.893-5.453,6.606c-0.256,0.135-0.567,0.126-0.751,0.447   c0.059,0.157-0.04,0.375-0.153,0.6c-1.271,0.629-1.895,2.188-3.113,3.301c-1.835,1.677-3.778,3.776-5.98,4.265   c-0.86,1.659-3.496,1.911-5.088,2.988c-1.363-0.064-2.306,0.951-3.746,0.691c-0.655,0.696-1.665,0.483-2.675,0.271   c-0.42,0.64-1.437,0.571-2.043,0.103c0.147-0.491,1.032-0.219,1.235-0.79c0.352,0.12,0.6,0.279,0.798,0.459   c0.008-0.333,0.087-0.393,0.338-0.518c1.614-0.02,3.232-0.026,4.404-1.177c1.486,0.311,2.319-1.054,3.735-0.919   c0.289-0.777,0.891-0.868,1.522-1.443c0.292-0.294-0.409-0.2-0.117-0.495c0.645,0.334,0.831-0.508,1.549,0.014   c2.197-1.296,4.263-2.928,6.173-4.958c-0.179-0.733,0.612-1.207,0.643-1.717c0.992-0.163,1.43-1.743,2.355-2.078   c0.289-1.394,1.402-1.973,1.93-2.375c0.665-0.506,0.907-1.18,1.499-1.897c1.494-1.813,3.447-3.31,5.466-3.602   c0.887,0.422,1.742,0.769,2.139-0.063c-2.444-1.178-4.717-0.22-6.252,1.591c-1.739,0.765-3.204,2.732-4.606,4.423   c-0.615,0.744-1.567,1.171-1.89,2.282c-0.52,0.248-1.065,0.434-1.398,1.164c-1.403,0.622-2.697,1.529-3.817,2.88   c-0.846,0.523-2.329,1.344-2.478,2.356c0.886,0.094,1.46-0.61,2.028-1.331c1.679-0.183,2.229-3.261,4.138-2.852   c-0.202,0.54-0.529,0.757-0.706,1.356c-2.174,1.419-4.02,3.681-6.685,3.846c-0.186,0.278-0.126,0.46-0.192,0.692   c-1.925,0.804-3.567,2.339-5.804,2.343c-2.067,1.231-4.75,0.889-7.235,1.048c0.331-0.508-0.356-0.139-0.208-0.536   c0.748,0.139,1.481,0.235,1.939-0.372c1.178,0.381,1.937-0.313,3.046-0.108c0.859-1.03,2.325-0.505,3.101-1.749   c0.511,0.121,0.911-0.041,1.416,0.064c0.102-0.397,0.411-0.267,0.513-0.663c1.508,0.103,2.238-1.787,3.689-1.825   C33.928,80.627,34.078,80.287,34.227,79.945z M51.64,85.581c-0.14-0.092-0.199,0.019-0.321-0.029   c-1.105,1.72-2.455,2.812-3.709,4.151C49.383,89.54,50.79,87.458,51.64,85.581z"/>
	<path fill-rule="evenodd" clip-rule="evenodd" d="M70.943,72.719c-1.32,1.188,0.234,2.581-0.568,4.082   c0.346,0.74,0.612,1.511,0.086,2.592c1.098-0.73,0.729-2.774,1.073-3.971C71.031,74.64,71.388,73.523,70.943,72.719z"/>
	<path fill-rule="evenodd" clip-rule="evenodd" d="M55.346,68.768c-0.617,0.333-0.262,1.167-0.498,1.892   c-0.255,0.792-1.047,1.484-0.928,2.371c-0.621,1.431-2.092,2.982-2.839,4.196c-0.554,0.899-0.61,2.316-1.744,2.457   c-0.106,0.67-0.854,0.827-0.572,1.304c-1.964,1.043-3.493,3.489-5.334,5.325c-0.563,0.562-1.416,0.696-1.924,1.6   c-0.252,0.212-0.592,0.2-0.949,0.141c-0.136,0.451-0.745,0.72-0.729,0.902c-0.191,0.1-0.478-0.038-0.681,0.034   c-0.505,0.619-1.123,0.948-1.865,0.959c-0.789,0.813-1.794,1.074-2.96,0.922c-1.189,0.45-2.3,1.1-3.63,1.188   c-0.245,0.163-0.434,0.468-0.699,0.582c-1.258-0.386-2.064,0.383-3.274,0.12c1.096,0.882,1.782,0.487,2.977,0.305   c0.908-0.142,1.601-0.003,2.156-0.609c1.801-0.049,3.832-0.753,5.621-1.423c0.673-0.252,1.22-0.565,1.72-1.135   c3.465-1.211,6.144-4.439,8.919-7.419c0.307-0.139,0.682-0.102,1.042-0.098c0.53-1.861,2.428-3.576,3.629-5.741   c0.618-1.115,0.99-2.372,1.51-3.447c0.679-1.397,2.164-3.063,1.332-4.304C55.532,68.849,55.44,68.808,55.346,68.768z"/>
	<path fill-rule="evenodd" clip-rule="evenodd" d="M64.337,73.598c-1.285,1.484-0.24,2.862-0.773,4.549   c0.073,0.125,0.196,0.232,0.423,0.297c-0.961,1.679-0.718,4.184-1.013,6.109c-1.172,2.965-2.65,6.217-4.834,7.989   c0.449,0.231,0.722-0.001,0.886-0.501c1.708-1.043,2.708-3.299,3.744-5.246c0.129-0.244,0.438-0.478,0.555-0.756   c0.255-0.632,0.236-1.535,0.524-2.214c0.073-0.168,0.334-0.437,0.381-0.61c0.314-1.188-0.264-2.486,0.508-3.442   c-0.165-0.372-0.205-0.797-0.377-1.165c0.685-0.775,0.223-1.315,0.218-2.016C64.573,75.498,65.387,74.065,64.337,73.598z"/>
	<path fill-rule="evenodd" clip-rule="evenodd" d="M52.929,68.708c-0.136,1.402-1.264,1.786-1.867,2.734   c-0.616,0.972-0.922,1.87-1.463,2.579c-1.125,1.476-2.764,1.688-3.352,3.084c-1.582,1.556-3.181,3.063-4.676,4.838   c-3.919,2.817-7.943,5.366-12.414,6.775c-0.212,0.012-0.189-0.416-0.372-0.165c-1.084,0.778-2.632,2.052-3.963,0.929   c1.399-0.503,2.762-1.104,4.312-1.218c0.065-0.231,0.172-0.353,0.297-0.427c1.065,0.025,1.777-0.854,2.827-0.87   c0.221-0.29,0.529-0.36,0.688-0.81c1.557-0.232,2.702-1.519,4.185-1.942c0.939-0.822,1.805-1.837,2.839-2.42   c-0.031-0.143-0.014-0.304,0.112-0.507c1.787-1.62,3.819-2.612,5.252-5.141c0.248-0.217,0.55-0.304,0.792-0.539   c1.181-2.45,2.597-4.296,4.385-5.187c0.162-0.46,0.571-0.552,0.956-0.914c0.236-0.581,0.464-1.186,0.998-1.007   C52.663,68.264,52.646,68.726,52.929,68.708z M49.384,72.484c-0.884,0.437-1.522,1.506-2.198,2.479   C48.174,74.82,48.953,73.431,49.384,72.484z"/>
	<path fill-rule="evenodd" clip-rule="evenodd" d="M37.813,63.411c-0.062-0.027-0.124-0.055-0.187-0.082   c-1.76,0.304-2.948,2.076-4.657,2.512c-0.105,0.388-0.317,0.506-0.513,0.664c-0.592,0.264-1.238,0.386-1.678,1.042   c-2.384,0.628-4.061,2.825-6.376,3.646c-0.556,0.198-1.266-0.097-1.607,0.628c0.108,0.443,0.8,0.282,1.251,0.438   c2.03-1,3.934-2.32,6.142-2.86c1.904-1.717,4.022-2.885,6.074-4.225C36.57,64.161,37.763,64.436,37.813,63.411z"/>
	<path fill-rule="evenodd" clip-rule="evenodd" d="M32.525,94.971c1.481,0.901,3.527-0.412,4.963-0.933   c0.125-0.391,0.667-0.368,0.555-0.758c0.312-0.154,0.183,0.425,0.56,0.246c0.699-0.32,1.468-0.458,2.249-0.569   c1.078-0.844,2.47-1.446,3.758-2.239c1.133-0.696,1.52-1.42,2.59-2.863c0.819-1.109,2.176-1.95,2.855-2.97   c0.363-0.542,0.518-1.218,0.87-1.729c1.222-1.763,2.248-3.013,2.939-4.931c0.617-1.711,1.423-3.847,2.349-5.857   c-0.111-0.109-0.164-0.244-0.157-0.401c-0.996,0.122-0.82,0.762-1.189,1.7c-0.379,0.951-1.246,2.109-1.576,3.085   c-0.111,0.325-0.014,0.728-0.13,1.055c-0.804,2.24-3.208,3.725-3.4,5.729c-1.586,1.213-2.071,3.346-3.616,4.191   c-0.592,1.111-1.728,2.386-2.92,2.606c-0.109,0.248-0.197,0.548-0.38,0.611c-2.304,0.82-4.317,2.391-6.73,2.935   c-0.167,0.299-0.451,0.297-0.554,0.759C34.5,94.623,33.574,94.957,32.525,94.971z"/>
	<path fill-rule="evenodd" clip-rule="evenodd" d="M70.47,79.621c-0.107,0.247-0.268,0.517-0.192,0.693   c0.203,0.124,0.363,0.142,0.508,0.112C70.909,80.067,70.917,79.755,70.47,79.621z"/>
	<path fill-rule="evenodd" clip-rule="evenodd" fill="#000000" d="M49.384,72.484c-0.884,0.437-1.522,1.506-2.198,2.479   C48.174,74.82,48.953,73.431,49.384,72.484z"/>
	<path fill-rule="evenodd" clip-rule="evenodd" d="M58.959,80.793c-0.139-0.022-0.218,0.101-0.361,0.063   c-1.672,1.951-3.053,4.658-4.387,6.962c-0.149,0.276-0.387,0.332-0.566,0.531c-0.105,0.273-0.316,0.587-0.232,0.785   c-1.881,1.905-3.744,3.862-5.736,5.482c-0.463,0.265-1.081,0.133-1.37,0.844c3.804-1.125,7.08-4.847,9.612-9.003   C57.042,84.616,58.691,83.075,58.959,80.793z"/>
	<path fill-rule="evenodd" clip-rule="evenodd" d="M60.571,82.945c-1.534,1.249-1.708,4.44-3.372,5.407   c-0.278,0.518-0.464,1.328-0.869,1.73c-2.095,2.079-3.973,4.462-6.271,5.69c2.082-0.351,4.894-2.527,6.451-4.835   c0.167-0.243,0.483-0.624,0.314-0.973C58.476,89.657,60.857,84.754,60.571,82.945z"/>
	<path fill-rule="evenodd" clip-rule="evenodd" d="M66.503,85.879c-0.914-0.195-0.639,0.983-0.933,1.367   C66.018,87.221,66.436,86.234,66.503,85.879z"/>
	<path fill-rule="evenodd" clip-rule="evenodd" d="M64.762,86.559c-0.063-0.027-0.125-0.054-0.187-0.082   c-1.003,0.117-1.291,1.686-1.559,2.539C63.985,88.713,64.106,87.399,64.762,86.559z"/>
	<path fill-rule="evenodd" clip-rule="evenodd" d="M48.95,82.847c-0.096,0.016-0.193,0.03-0.32-0.03   c-0.874,0.466-1.362,1.918-2.251,2.347c-1.134,1.975-2.743,2.731-4.07,4.213c-0.849,0.274-1.967,0.875-2.429,1.489   c-1.037-0.019-1.75,0.793-2.786,0.777c-0.117,0.294-0.409,0.139-0.472,0.571c-0.744,0.138-1.499,0.247-2.052,0.877   c-1.887,0.042-3.374,1.116-5.376,0.864c0.374,1.281,2.083,0.031,3.07,0.346c2.971-0.96,6.008-1.751,8.712-3.4   c1.921-0.59,4.592-3.107,6.335-5.329c0.213-0.271,0.402-0.784,0.717-1.13C48.588,83.828,49.206,83.811,48.95,82.847z"/>
	<path fill-rule="evenodd" clip-rule="evenodd" d="M62.721,89.442c-0.582-0.136-0.999,1.083-1.16,1.379   C62.084,90.801,62.642,89.952,62.721,89.442z"/>
	<path fill-rule="evenodd" clip-rule="evenodd" fill="#000000" d="M51.64,85.581c-0.14-0.092-0.199,0.019-0.321-0.029   c-1.105,1.72-2.455,2.812-3.709,4.151C49.383,89.54,50.79,87.458,51.64,85.581z"/>
	<path fill-rule="evenodd" clip-rule="evenodd" d="M58.161,92.996c-0.932-0.314-0.813,0.854-1.595,0.855   c-0.078,0.212,0.378,0.213,0.518,0.339C57.217,93.21,57.903,93.648,58.161,92.996z"/>
	<path fill-rule="evenodd" clip-rule="evenodd" d="M21.738,79.801"/>
	<path fill-rule="evenodd" clip-rule="evenodd" d="M18.237,79.931c-0.164,0.372,0.301,0.5,0.314,0.804   c0.752-0.05,1.712,0.431,2.114-0.517C19.975,79.171,19.158,80.345,18.237,79.931z"/>
	<path fill-rule="evenodd" clip-rule="evenodd" d="M17.329,79.976c-0.255-0.191-0.381-0.053-0.599-0.151   c-0.235,0.4-0.13,0.667,0.313,0.803C17.23,80.562,17.407,80.159,17.329,79.976z"/>
	<path fill-rule="evenodd" clip-rule="evenodd" d="M41.292,94.484c-1.236-0.331-1.931,0.725-3.011,0.79   c0.44,0.444,1.717-0.332,2.54-0.219C40.933,94.753,41.205,94.851,41.292,94.484z"/>
	<path fill-rule="evenodd" clip-rule="evenodd" d="M24.317,89.373c-0.28,0.668-1.257-0.452-1.486,0.348   c0.397,0.429,1.212,0.381,1.759,0.549c0.094-0.22,0.28-0.202,0.338-0.519C24.865,89.57,24.564,89.482,24.317,89.373z"/>
	<path fill-rule="evenodd" clip-rule="evenodd" d="M38.023,95.605c-0.244-0.415-0.869-0.121-1.137,0.058   C37.381,95.939,37.643,95.618,38.023,95.605z"/>
</g>
<text x="0.0" y="117.5" font-size="5.0" font-weight="bold" font-family="Helvetica Neue, Helvetica, Arial-Unicode, Arial, Sans-serif" fill="#000000">Created by Wilson Joseph</text><text x="0.0" y="122.5" font-size="5.0" font-weight="bold" font-family="Helvetica Neue, Helvetica, Arial-Unicode, Arial, Sans-serif" fill="#000000">from the Noun Project</text></svg>